<?xml version="1.0" encoding="UTF-8" standalone="no"?>
<!-- Created with Inkscape (http://www.inkscape.org/) -->

<svg
   xmlns:dc="http://purl.org/dc/elements/1.1/"
   xmlns:cc="http://creativecommons.org/ns#"
   xmlns:rdf="http://www.w3.org/1999/02/22-rdf-syntax-ns#"
   xmlns:svg="http://www.w3.org/2000/svg"
   xmlns="http://www.w3.org/2000/svg"
   xmlns:sodipodi="http://sodipodi.sourceforge.net/DTD/sodipodi-0.dtd"
   xmlns:inkscape="http://www.inkscape.org/namespaces/inkscape"
   width="429.53217"
   height="279.43741"
   id="svg7586"
   version="1.1"
   inkscape:version="0.48.2 r9819"
   sodipodi:docname="ReProjectionError.svg">
  <sodipodi:namedview
     id="base"
     pagecolor="#ffffff"
     bordercolor="#666666"
     borderopacity="1.0"
     inkscape:pageopacity="0.0"
     inkscape:pageshadow="2"
     inkscape:zoom="1.979899"
     inkscape:cx="243.60003"
     inkscape:cy="147.83166"
     inkscape:document-units="px"
     inkscape:current-layer="layer1"
     showgrid="false"
     inkscape:window-width="1920"
     inkscape:window-height="1178"
     inkscape:window-x="1912"
     inkscape:window-y="-8"
     inkscape:window-maximized="1"
     fit-margin-top="10"
     fit-margin-right="10"
     fit-margin-bottom="10"
     fit-margin-left="10" />
  <defs
     id="defs7588">
    <clipPath
       clipPathUnits="userSpaceOnUse"
       id="clipPath7750">
      <path
         d="m 1530.72,3193.37 3175.16,0 0,2075.19 -3175.16,0 0,-2075.19 z"
         id="path7752"
         inkscape:connector-curvature="0" />
    </clipPath>
  </defs>
  <metadata
     id="metadata7591">
    <rdf:RDF>
      <cc:Work
         rdf:about="">
        <dc:format>image/svg+xml</dc:format>
        <dc:type
           rdf:resource="http://purl.org/dc/dcmitype/StillImage" />
        <dc:title />
      </cc:Work>
    </rdf:RDF>
  </metadata>
  <g
     id="layer1"
     inkscape:groupmode="layer"
     inkscape:label="Layer 1"
     transform="translate(-176.6695,-381.06484)">
    <g
       id="g7754"
       transform="matrix(0.099583,0.04224425,0,0.10817275,-1.6091886,1050.016)">
      <path
         inkscape:connector-curvature="0"
         d="m 2710.89,-7138.93 1681.14,0 0,1441.11 -1681.14,-0.01 0,-1441.1 z"
         style="fill:none;stroke:#000000;stroke-width:16.38879967;stroke-linecap:butt;stroke-linejoin:miter;stroke-miterlimit:4;stroke-opacity:1;stroke-dasharray:none"
         id="path7756" />
    </g>
    <path
       inkscape:connector-curvature="0"
       d="m 212.88206,591.12475 c 0,1.4875 -1.21,2.7 -2.69875,2.7 -1.48875,0 -2.69375,-1.2125 -2.69375,-2.7 0,-1.48875 1.205,-2.69125 2.69375,-2.69125 1.48875,0 2.69875,1.2025 2.69875,2.69125 z"
       style="fill:#000000;fill-opacity:1;fill-rule:nonzero;stroke:none"
       id="path7758" />
    <path
       inkscape:connector-curvature="0"
       d="m 212.88206,591.12475 c 0,1.4875 -1.21,2.7 -2.69875,2.7 -1.48875,0 -2.69375,-1.2125 -2.69375,-2.7 0,-1.48875 1.205,-2.69125 2.69375,-2.69125 1.48875,0 2.69875,1.2025 2.69875,2.69125 z"
       style="fill:none;stroke:#000000;stroke-width:0.32336625;stroke-linecap:butt;stroke-linejoin:miter;stroke-miterlimit:4;stroke-opacity:1;stroke-dasharray:none"
       id="path7760" />
    <path
       inkscape:connector-curvature="0"
       d="m 210.43956,590.81975 39.93625,-28.0025"
       style="fill:none;stroke:#000000;stroke-width:1.41747499;stroke-linecap:butt;stroke-linejoin:miter;stroke-miterlimit:4;stroke-opacity:1;stroke-dasharray:none"
       id="path7762" />
    <path
       inkscape:connector-curvature="0"
       d="m 242.33331,564.2635 9.57125,-2.53375 -5.6475,8.1325 c 0.0563,-2.505 -1.53625,-4.76125 -3.92375,-5.59875 z"
       style="fill:#000000;fill-opacity:1;fill-rule:evenodd;stroke:none"
       id="path7764" />
    <path
       inkscape:connector-curvature="0"
       d="m 209.66456,590.97225 39.90125,22.9725"
       style="fill:none;stroke:#000000;stroke-width:1.41747499;stroke-linecap:butt;stroke-linejoin:miter;stroke-miterlimit:4;stroke-opacity:1;stroke-dasharray:none"
       id="path7766" />
    <path
       inkscape:connector-curvature="0"
       d="m 244.85081,607.2735 6.3475,7.5925 -9.7575,-1.67625 c 2.29125,-1.00375 3.66,-3.39875 3.41,-5.91625 z"
       style="fill:#000000;fill-opacity:1;fill-rule:evenodd;stroke:none"
       id="path7768" />
    <path
       inkscape:connector-curvature="0"
       d="m 210.03831,589.831 -0.0625,46.38"
       style="fill:none;stroke:#000000;stroke-width:1.41747499;stroke-linecap:butt;stroke-linejoin:miter;stroke-miterlimit:4;stroke-opacity:1;stroke-dasharray:none"
       id="path7770" />
    <path
       inkscape:connector-curvature="0"
       d="m 213.41581,628.80475 -3.42625,9.2875 -3.405,-9.30125 c 2.0125,1.4875 4.775,1.4875 6.83125,0.0137 z"
       style="fill:#000000;fill-opacity:1;fill-rule:evenodd;stroke:none"
       id="path7772" />
    <path
       inkscape:connector-curvature="0"
       d="m 564.58706,450.8385 c 0,1.48625 -1.21,2.69875 -2.69875,2.69875 -1.48875,0 -2.69125,-1.2125 -2.69125,-2.69875 0,-1.48875 1.2025,-2.69375 2.69125,-2.69375 1.48875,0 2.69875,1.205 2.69875,2.69375 z"
       style="fill:#000000;fill-opacity:1;fill-rule:nonzero;stroke:none"
       id="path7774" />
    <path
       inkscape:connector-curvature="0"
       d="m 564.58706,450.8385 c 0,1.48625 -1.21,2.69875 -2.69875,2.69875 -1.48875,0 -2.69125,-1.2125 -2.69125,-2.69875 0,-1.48875 1.2025,-2.69375 2.69125,-2.69375 1.48875,0 2.69875,1.205 2.69875,2.69375 z"
       style="fill:none;stroke:#000000;stroke-width:0.32336625;stroke-linecap:butt;stroke-linejoin:miter;stroke-miterlimit:4;stroke-opacity:1;stroke-dasharray:none"
       id="path7776" />
    <path
       inkscape:connector-curvature="0"
       d="m 388.88331,519.86975 -178.26375,71.435"
       style="fill:none;stroke:#000000;stroke-width:0.70874;stroke-linecap:butt;stroke-linejoin:miter;stroke-miterlimit:4;stroke-opacity:1;stroke-dasharray:none"
       id="path7778" />
    <path
       inkscape:connector-curvature="0"
       d="m 562.82956,450.1385 -127.02625,50.9"
       style="fill:none;stroke:#000000;stroke-width:0.70874;stroke-linecap:butt;stroke-linejoin:miter;stroke-miterlimit:4;stroke-opacity:1;stroke-dasharray:none"
       id="path7780" />
    <path
       inkscape:connector-curvature="0"
       d="m 433.87956,501.91725 -45.52125,18.245"
       style="fill:none;stroke:#000000;stroke-width:0.70874;stroke-linecap:butt;stroke-linejoin:miter;stroke-miterlimit:4;stroke-opacity:1;stroke-dasharray:2.126225, 2.126225;stroke-dashoffset:0"
       id="path7782" />
    <path
       inkscape:connector-curvature="0"
       d="m 392.96706,519.476 c 0,1.48875 -1.205,2.69875 -2.69125,2.69875 -1.4875,0 -2.6925,-1.21 -2.6925,-2.69875 0,-1.48875 1.205,-2.6925 2.6925,-2.6925 1.48625,0 2.69125,1.20375 2.69125,2.6925 z"
       style="fill:#808080;fill-opacity:1;fill-rule:nonzero;stroke:none"
       id="path7784" />
    <path
       inkscape:connector-curvature="0"
       d="m 392.96706,519.476 c 0,1.48875 -1.205,2.69875 -2.69125,2.69875 -1.4875,0 -2.6925,-1.21 -2.6925,-2.69875 0,-1.48875 1.205,-2.6925 2.6925,-2.6925 1.48625,0 2.69125,1.20375 2.69125,2.6925 z"
       style="fill:none;stroke:#000000;stroke-width:0.32336625;stroke-linecap:butt;stroke-linejoin:miter;stroke-miterlimit:4;stroke-opacity:1;stroke-dasharray:none"
       id="path7786" />
    <path
       inkscape:connector-curvature="0"
       d="m 259.67831,611.4385 -1.17125,-2.81 c -0.0475,-0.11 -0.0688,-0.17875 -0.0688,-0.17875 0,-0.0838 0.22125,-0.355 0.82375,-0.41625 0.1525,-0.0263 0.2825,-0.0263 0.2825,-0.27 0,-0.17375 -0.17125,-0.17375 -0.22125,-0.17375 -0.57375,0 -1.16875,0.0425 -1.77125,0.0425 -0.3525,0 -1.2175,-0.0425 -1.57,-0.0425 -0.09,0 -0.26375,0 -0.26375,0.28375 0,0.16 0.1525,0.16 0.3325,0.16 0.83625,0 0.9275,0.1325 1.05875,0.4425 l 1.66125,3.93875 -2.99125,3.21125 c -0.0613,0.0713 -0.0875,0.09 -0.17125,0.15875 -0.6925,0.74875 -1.3575,0.97 -2.08375,1.01875 -0.18125,0.02 -0.3125,0.02 -0.3125,0.28375 0,0.0275 0,0.16 0.20125,0.16 0.4225,0 0.88625,-0.05 1.30875,-0.05 0.52625,0 1.08,0.05 1.59125,0.05 0.0913,0 0.2425,0 0.2425,-0.2925 0,-0.13125 -0.13125,-0.15125 -0.15125,-0.15125 -0.1325,0 -0.575,-0.0488 -0.575,-0.4425 0,-0.22125 0.22125,-0.44375 0.37375,-0.62375 l 1.46,-1.52875 c 0.42125,-0.465 0.97625,-1.03875 1.2675,-1.39125 l 1.41125,3.38375 c 0.07,0.16 0.0888,0.16 0.0888,0.20125 0,0.10875 -0.28375,0.3525 -0.81625,0.40125 -0.1575,0.02 -0.29125,0.02 -0.29125,0.2625 0,0.18125 0.16,0.18125 0.2025,0.18125 0.4,0 1.3975,-0.05 1.79125,-0.05 0.355,0 1.21875,0.05 1.57125,0.05 0.0913,0 0.27,0 0.27,-0.27125 0,-0.1725 -0.1575,-0.1725 -0.27,-0.1725 -0.92625,0 -0.96875,-0.0488 -1.21625,-0.62375 -0.52625,-1.3075 -1.4825,-3.5225 -1.815,-4.36 0.955,-0.99625 2.43625,-2.67875 2.9,-3.06 0.40125,-0.3525 0.955,-0.68375 1.79375,-0.72625 0.17875,-0.0263 0.31,-0.0263 0.31,-0.29125 0,0 0,-0.1525 -0.17125,-0.1525 -0.42375,0 -0.915,0.0425 -1.33,0.0425 -0.5325,0 -1.06625,-0.0425 -1.57875,-0.0425 -0.0825,0 -0.26125,0 -0.26125,0.28375 0,0.0912 0.0687,0.13375 0.1525,0.16 0.1375,0.0213 0.58,0.0425 0.58,0.4425 0,0.195 -0.15875,0.37375 -0.27,0.505 l -2.30375,2.4575 z"
       style="fill:#000000;fill-opacity:1;fill-rule:nonzero;stroke:none"
       id="path7792" />
    <path
       inkscape:connector-curvature="0"
       d="m 245.98706,550.3035 c 0.0212,-0.0625 0.0412,-0.13125 0.0412,-0.2225 0,-0.13125 -0.0625,-0.13125 -0.35375,-0.13125 l -5.9575,0 c -0.33375,0 -0.3525,0.0213 -0.44375,0.29125 l -0.77625,2.5475 c -0.0188,0.0625 -0.04,0.1725 -0.04,0.19375 0,0 0,0.15875 0.18,0.15875 0.13125,0 0.1525,-0.11125 0.1725,-0.15875 0.555,-1.6625 1.2875,-2.58875 3.48125,-2.58875 l 2.29875,0 -7.88375,8.8375 c 0,0 -0.0613,0.2025 -0.0613,0.2425 0,0.13125 0.0812,0.13125 0.3525,0.13125 l 6.1325,0 c 0.3525,0 0.3525,-0.0187 0.4425,-0.2825 l 1.0175,-3.13 c 0,-0.04 0.0475,-0.15 0.0475,-0.1925 0,-0.0912 -0.0475,-0.16 -0.17875,-0.16 -0.13375,0 -0.1525,0.05 -0.24375,0.3525 -0.6225,1.9125 -1.3075,2.92875 -3.695,2.92875 l -2.415,0 7.8825,-8.8175 z"
       style="fill:#000000;fill-opacity:1;fill-rule:nonzero;stroke:none"
       id="path7794" />
    <path
       inkscape:connector-curvature="0"
       d="m 213.09081,642.45975 0.1925,-0.1925 c 0.4225,-0.42375 0.88625,-0.91375 1.8425,-0.97625 0.15125,-0.0213 0.29,-0.0213 0.29,-0.27125 0,-0.11 -0.07,-0.17125 -0.17875,-0.17125 -0.37375,0 -0.77625,0.04 -1.15,0.04 -0.49125,0 -0.97625,-0.04 -1.42,-0.04 -0.0888,0 -0.26875,0 -0.26875,0.26125 0,0.16 0.1375,0.18125 0.2,0.18125 0.11125,0 0.5125,0.0212 0.5125,0.33125 0,0.2425 -0.33125,0.595 -0.38125,0.66375 l -3.2725,3.7875 -1.55125,-4.20875 c -0.09,-0.2 -0.09,-0.22125 -0.09,-0.2425 0,-0.33125 0.68625,-0.33125 0.845,-0.33125 0.1725,0 0.33125,0 0.33125,-0.29 0,-0.1525 -0.17875,-0.1525 -0.22125,-0.1525 -0.4,0 -1.37625,0.04 -1.77125,0.04 -0.36,0 -1.24625,-0.04 -1.59875,-0.04 -0.0613,0 -0.26375,0 -0.26375,0.2825 0,0.16 0.1525,0.16 0.33375,0.16 0.835,0 0.90625,0.13125 1.0375,0.48375 l 1.73,4.65125 c 0.0212,0.05 0.0613,0.20125 0.0613,0.22125 0,0.05 -0.57375,2.32625 -0.63625,2.59625 -0.17875,0.775 -0.2,0.81625 -1.32875,0.81625 -0.26875,0 -0.38125,0 -0.38125,0.29125 0,0.15125 0.16,0.15125 0.2025,0.15125 0.3725,0 1.37,-0.04 1.7725,-0.04 0.4,0 1.4175,0.04 1.8125,0.04 0.09,0 0.26875,0 0.26875,-0.29 0,-0.1525 -0.13125,-0.1525 -0.4,-0.1525 -0.0212,0 -0.28375,0 -0.53375,-0.0213 -0.305,-0.02 -0.395,-0.0688 -0.395,-0.22125 0,-0.11 0.1325,-0.6025 0.20125,-0.88625 0.24125,-0.955 0.28375,-1.155 0.50625,-1.9925 0.0688,-0.29125 0.09,-0.31125 0.2,-0.44375 l 3.5025,-4.035 z"
       style="fill:#000000;fill-opacity:1;fill-rule:nonzero;stroke:none"
       id="path7796" />
    <path
       inkscape:connector-curvature="0"
       d="m 366.84706,490.40725 c 0,1.49375 -1.205,2.69875 -2.69375,2.69875 -1.48625,0 -2.69875,-1.205 -2.69875,-2.69875 0,-1.48875 1.2125,-2.6925 2.69875,-2.6925 1.48875,0 2.69375,1.20375 2.69375,2.6925 z"
       style="fill:#808080;fill-opacity:1;fill-rule:nonzero;stroke:none"
       id="path7798" />
    <path
       inkscape:connector-curvature="0"
       d="m 366.84706,490.40725 c 0,1.49375 -1.205,2.69875 -2.69375,2.69875 -1.48625,0 -2.69875,-1.205 -2.69875,-2.69875 0,-1.48875 1.2125,-2.6925 2.69875,-2.6925 1.48875,0 2.69375,1.20375 2.69375,2.6925 z"
       style="fill:none;stroke:#000000;stroke-width:0.32336625;stroke-linecap:butt;stroke-linejoin:miter;stroke-miterlimit:4;stroke-opacity:1;stroke-dasharray:none"
       id="path7800" />
    <path
       inkscape:connector-curvature="0"
       d="m 370.59831,494.7735 -1.68875,1.32875 14.7075,18.25125 1.64125,-1.32875 -14.66,-18.25125 z"
       style="fill:#008080;fill-opacity:1;fill-rule:nonzero;stroke:none"
       id="path7804" />
    <path
       inkscape:connector-curvature="0"
       d="m 371.35331,497.431 2.98875,0.32625 -6.32625,-4.465 3.0175,7.13 0.32,-2.99125 z"
       style="fill:#008080;fill-opacity:1;fill-rule:evenodd;stroke:none"
       id="path7806" />
    <path
       inkscape:connector-curvature="0"
       d="m 371.35331,497.431 2.98875,0.32625 -6.32625,-4.465 3.0175,7.13 0.32,-2.99125 z"
       style="fill:none;stroke:#008080;stroke-width:0.28349626;stroke-linecap:butt;stroke-linejoin:miter;stroke-miterlimit:4;stroke-opacity:1;stroke-dasharray:none"
       id="path7808" />
    <path
       inkscape:connector-curvature="0"
       d="m 382.83456,511.68225 -2.99,-0.3175 6.32625,4.45625 -3.0175,-7.12875 -0.31875,2.99 z"
       style="fill:#008080;fill-opacity:1;fill-rule:evenodd;stroke:none"
       id="path7810" />
    <path
       inkscape:connector-curvature="0"
       d="m 382.83456,511.68225 -2.99,-0.3175 6.32625,4.45625 -3.0175,-7.12875 -0.31875,2.99 z"
       style="fill:none;stroke:#008080;stroke-width:0.28349626;stroke-linecap:butt;stroke-linejoin:miter;stroke-miterlimit:4;stroke-opacity:1;stroke-dasharray:none"
       id="path7812" />
    <path
       inkscape:connector-curvature="0"
       d="m 380.77956,502.401 c -0.07,0.345 -0.2075,0.865 -0.2075,0.96875 0,0.38125 0.31125,0.58875 0.65625,0.58875 0.27625,0 0.6575,-0.17375 0.83125,-0.62375 0.0337,-0.0687 0.7625,-3.0725 0.865,-3.4875 0.17375,-0.72625 0.58125,-2.2425 0.685,-2.865 0.10375,-0.2775 0.7275,-1.31625 1.24625,-1.8 0.17375,-0.1375 0.83125,-0.72 1.765,-0.72 0.58125,0 0.8925,0.2775 0.92875,0.2775 -0.66,0.1025 -1.13625,0.61625 -1.13625,1.205 0,0.345 0.23625,0.76 0.82375,0.76 0.58875,0 1.21,-0.51875 1.21,-1.315 0,-0.755 -0.69,-1.4125 -1.82625,-1.4125 -1.42,0 -2.38875,1.0675 -2.80375,1.68875 -0.2075,-0.99625 -0.995,-1.68875 -2.03375,-1.68875 -1.00375,0 -1.41875,0.865 -1.62625,1.23875 -0.37375,0.7625 -0.6525,2.07625 -0.6525,2.14625 0,0.2425 0.21,0.2425 0.24375,0.2425 0.235,0 0.235,-0.0337 0.3725,-0.52 0.38125,-1.5575 0.83125,-2.6225 1.6275,-2.6225 0.345,0 0.6575,0.1725 0.6575,0.99625 0,0.48625 -0.07,0.7275 -0.34625,1.87 l -1.28,5.0725 z"
       style="fill:#000000;fill-opacity:1;fill-rule:nonzero;stroke:none"
       id="path7814" />
    <path
       inkscape:connector-curvature="0"
       d="m 380.84831,532.286 1.98625,0 c -0.58125,2.59 -0.7475,3.365 -0.7475,4.54875 0,0.24875 0,0.7125 0.13875,1.32125 0.19375,0.76875 0.38625,0.88 0.63625,0.88 0.36,0 0.74125,-0.305 0.74125,-0.6575 0,-0.1125 0,-0.13875 -0.1125,-0.38875 -0.51875,-1.26625 -0.51875,-2.42125 -0.51875,-2.92 0,-0.90625 0.14,-1.87625 0.32625,-2.78375 l 1.98625,0 c 0.25,0 0.87875,0 0.87875,-0.6075 0,-0.40875 -0.38125,-0.40875 -0.7125,-0.40875 l -5.89625,0 c -0.38125,0 -1.045,0 -1.815,0.82375 -0.6075,0.6925 -1.07875,1.48875 -1.07875,1.5725 0,0.0262 0,0.1925 0.22125,0.1925 0.13875,0 0.1675,-0.0838 0.27625,-0.22125 0.8525,-1.35125 1.8775,-1.35125 2.23,-1.35125 l 0.9975,0 c -0.555,2.1275 -1.48875,4.24375 -2.23625,5.8425 -0.13875,0.27625 -0.13875,0.305 -0.13875,0.43625 0,0.3325 0.2775,0.47125 0.49875,0.47125 0.52625,0 0.66375,-0.4975 0.87875,-1.12875 0.25,-0.82375 0.25,-0.85125 0.47125,-1.73625 l 0.98875,-3.885 z"
       style="fill:#000000;fill-opacity:1;fill-rule:nonzero;stroke:none"
       id="path7816" />
    <path
       inkscape:connector-curvature="0"
       d="m 392.64831,543.056 c 0,-0.055 0,-0.0813 -0.3025,-0.38625 -2.17375,-2.2025 -2.75625,-5.53 -2.75625,-8.2375 0,-3.05125 0.665,-6.11125 2.8375,-8.285 0.22125,-0.22125 0.22125,-0.2475 0.22125,-0.30375 0,-0.13875 -0.055,-0.19375 -0.165,-0.19375 -0.195,0 -1.7575,1.21125 -2.81,3.44 -0.87875,1.93 -1.1,3.89 -1.1,5.3425 0,1.37875 0.1925,3.50375 1.155,5.51 1.07875,2.15125 2.56,3.30875 2.755,3.30875 0.11,0 0.165,-0.055 0.165,-0.195 z"
       style="fill:#000000;fill-opacity:1;fill-rule:nonzero;stroke:none"
       id="path7818" />
    <path
       inkscape:connector-curvature="0"
       d="m 401.90956,522.47225 c 0,0 -0.6575,0.83125 -1.43375,0.83125 -0.40625,0 -0.85,-0.25 -1.155,-0.44375 -0.46375,-0.27625 -0.76875,-0.3875 -1.07125,-0.3875 -0.665,0 -1.01875,0.3875 -1.905,1.37875 l 0.27875,0.2475 c 0,0 0.66375,-0.82375 1.43125,-0.82375 0.41625,0 0.85125,0.24375 1.15625,0.41 0.47,0.305 0.8025,0.41375 1.10125,0.41375 0.66375,0 0.995,-0.3875 1.87375,-1.37625 l -0.27625,-0.25 z"
       style="fill:#000000;fill-opacity:1;fill-rule:nonzero;stroke:none"
       id="path7820" />
    <path
       inkscape:connector-curvature="0"
       d="m 399.86831,533.77475 c 2.1725,0 4.02,-1.5975 4.02,-3.5775 0,-1.87625 -1.73625,-3.5575 -4.1575,-3.5575 l -4.3825,0 0,12.2025 1.57125,0 0,-5.0675 2.94875,0 z m -0.52625,-6.14625 c 1.93125,0 3.1425,1.08125 3.1425,2.56875 0,1.40625 -1.1275,2.56125 -3.1425,2.56125 l -2.47875,0 0,-5.13 2.47875,0 z"
       style="fill:#000000;fill-opacity:1;fill-rule:nonzero;stroke:none"
       id="path7822" />
    <path
       inkscape:connector-curvature="0"
       d="m 416.64456,522.66725 c 0,0 -0.665,0.82875 -1.43125,0.82875 -0.41625,0 -0.8525,-0.2475 -1.1575,-0.4425 -0.47,-0.27625 -0.775,-0.38625 -1.07125,-0.38625 -0.665,0 -1.025,0.38625 -1.90375,1.37625 l 0.27625,0.25 c 0,0 0.6575,-0.82375 1.43375,-0.82375 0.4075,0 0.85,0.24875 1.155,0.415 0.47125,0.2975 0.795,0.40875 1.10125,0.40875 0.66375,0 0.99,-0.38 1.875,-1.3775 l -0.2775,-0.24875 z"
       style="fill:#000000;fill-opacity:1;fill-rule:nonzero;stroke:none"
       id="path7824" />
    <path
       inkscape:connector-curvature="0"
       d="m 424.30081,534.43225 c 0,-1.34875 -0.195,-3.4675 -1.1575,-5.4825 -1.0425,-2.14375 -2.56,-3.3 -2.72625,-3.3 -0.11,0 -0.19375,0.0825 -0.19375,0.19375 0,0.0563 0,0.0825 0.33125,0.40875 1.73875,1.7375 2.7275,4.52 2.7275,8.18 0,3.0325 -0.63625,6.11875 -2.80875,8.32 -0.25,0.2225 -0.25,0.24875 -0.25,0.30375 0,0.11125 0.0837,0.195 0.19375,0.195 0.16625,0 1.765,-1.2125 2.78375,-3.44125 0.905,-1.93 1.1,-3.88875 1.1,-5.3775 z"
       style="fill:#000000;fill-opacity:1;fill-rule:nonzero;stroke:none"
       id="path7828" />
    <g
       id="g4091"
       transform="matrix(0.53273355,0,0,0.49464789,406.9187,277.64522)">
      <g
         word-spacing="normal"
         letter-spacing="normal"
         font-size-adjust="none"
         font-stretch="normal"
         font-weight="normal"
         font-variant="normal"
         font-style="normal"
         stroke-miterlimit="10.433"
         xml:space="preserve"
         transform="matrix(1.0629921,0,0,-1.0629921,-186.02362,789.27165)"
         id="content"
         style="font-style:normal;font-variant:normal;font-weight:normal;font-stretch:normal;letter-spacing:normal;word-spacing:normal;text-anchor:start;fill:none;stroke:#000000;stroke-linecap:butt;stroke-linejoin:miter;stroke-miterlimit:10.43299961;stroke-opacity:1;stroke-dasharray:none;stroke-dashoffset:0"><path
           id="path4094"
           d="m 480.16,426.47 -4.18,9.92 c -0.16,0.4 -0.25,0.59 -0.25,0.65 0,0.29 0.84,1.24 2.93,1.44 0.5,0.05 1,0.1 1,0.95 0,0.59 -0.6,0.59 -0.75,0.59 h -11.85 c -0.3,0 -0.9,0 -0.9,-0.99 0,-0.55 0.5,-0.55 1.15,-0.55 2.99,0 3.28,-0.5 3.73,-1.6 l 5.88,-13.9 -10.51,-11.3 -0.65,-0.55 c -2.44,-2.64 -4.78,-3.43 -7.32,-3.59 -0.65,-0.04 -1.1,-0.04 -1.1,-0.99 0,-0.05 0,-0.55 0.65,-0.55 h 10.26 c 0.3,0 0.9,0 0.9,1 0,0.5 -0.5,0.54 -0.6,0.54 -0.44,0.05 -1.99,0.16 -1.99,1.55 0,0.8 0.75,1.59 1.35,2.24 l 5.07,5.38 4.49,4.88 5.03,-11.9 c 0.2,-0.55 0.25,-0.6 0.25,-0.7 0,-0.4 -0.95,-1.25 -2.89,-1.45 -0.55,-0.04 -1,-0.09 -1,-0.94 0,-0.6 0.55,-0.6 0.75,-0.6 h 11.81 c 0.35,0 0.94,0 0.94,0.95 0,0.59 -0.49,0.59 -0.89,0.59 -3.34,0.05 -3.44,0.2 -4.29,2.19 -1.94,4.64 -5.28,12.41 -6.42,15.4 3.38,3.48 8.62,9.41 10.21,10.81 1.44,1.19 3.33,2.39 6.33,2.54 0.64,0.05 1.09,0.05 1.09,0.99 0,0.05 0,0.55 -0.65,0.55 h -10.21 c -0.3,0 -0.94,0 -0.94,-0.99 0,-0.35 0.25,-0.5 0.59,-0.55 0.45,-0.05 2,-0.15 2,-1.55 0,-0.69 -0.55,-1.34 -0.95,-1.79 z"
           inkscape:connector-curvature="0"
           style="fill:#000000;stroke-width:0" /><path
           id="path4096"
           d="m 508.3,420.79 0,0.06 -0.01,0.05 0,0.05 -0.01,0.06 -0.01,0.06 -0.02,0.05 -0.01,0.06 -0.02,0.06 -0.03,0.05 -0.02,0.06 -0.03,0.05 -0.03,0.06 -0.03,0.05 -0.03,0.05 -0.04,0.05 -0.04,0.05 -0.05,0.05 -0.04,0.05 -0.05,0.04 -0.06,0.05 -0.05,0.04 -0.06,0.03 -0.06,0.04 -0.07,0.03 -0.07,0.03 -0.07,0.02 -0.07,0.02 -0.08,0.02 -0.08,0.02 -0.08,0.01 -0.09,0 -0.09,0.01 c -0.94,0 -1.95,-0.91 -1.95,-1.92 0,-0.59 0.45,-1.32 1.39,-1.32 1.02,0 1.96,0.97 1.96,1.91 z"
           inkscape:connector-curvature="0"
           style="fill:#000000;stroke-width:0" /><path
           id="path4098"
           d="m 501.18,403.08 -0.05,-0.17 -0.05,-0.17 -0.03,-0.08 -0.03,-0.09 -0.02,-0.08 -0.03,-0.09 -0.02,-0.09 -0.02,-0.09 -0.01,-0.1 -0.02,-0.09 -0.01,-0.1 -0.01,-0.05 0,-0.05 0,-0.05 -0.01,-0.06 0,-0.05 0,-0.06 c 0,-1.63 1.4,-2.96 3.31,-2.96 3.49,0 5.02,4.81 5.02,5.33 0,0.46 -0.45,0.46 -0.56,0.46 -0.48,0 -0.52,-0.21 -0.66,-0.59 -0.8,-2.79 -2.33,-4.22 -3.69,-4.22 -0.7,0 -0.88,0.45 -0.88,1.22 0,0.8 0.25,1.46 0.56,2.23 0.35,0.94 0.74,1.88 1.12,2.79 0.31,0.84 1.57,4.01 1.71,4.43 0.1,0.34 0.21,0.77 0.21,1.11 0,1.64 -1.4,2.97 -3.31,2.97 -3.46,0 -5.06,-4.74 -5.06,-5.34 0,-0.45 0.49,-0.45 0.59,-0.45 0.49,0 0.52,0.17 0.63,0.56 0.91,2.99 2.44,4.25 3.73,4.25 0.56,0 0.87,-0.28 0.87,-1.22 0,-0.8 -0.21,-1.32 -1.08,-3.48 z"
           inkscape:connector-curvature="0"
           style="fill:#000000;stroke-width:0" /></g>    </g>
    <g
       id="g4344"
       transform="matrix(0.49726505,0,0,0.53083999,189.83308,294.25674)">
      <g
         word-spacing="normal"
         letter-spacing="normal"
         font-size-adjust="none"
         font-stretch="normal"
         font-weight="normal"
         font-variant="normal"
         font-style="normal"
         stroke-miterlimit="10.433"
         xml:space="preserve"
         transform="matrix(1.0629921,0,0,-1.0629921,-186.02362,789.27165)"
         id="g4346"
         style="font-style:normal;font-variant:normal;font-weight:normal;font-stretch:normal;letter-spacing:normal;word-spacing:normal;text-anchor:start;fill:none;stroke:#000000;stroke-linecap:butt;stroke-linejoin:miter;stroke-miterlimit:10.43299961;stroke-opacity:1;stroke-dasharray:none;stroke-dashoffset:0"><path
           id="path4348"
           d="m 472.64,421.04 0.03,0.13 0.03,0.15 0.05,0.17 0.04,0.18 0.06,0.19 0.06,0.21 0.06,0.21 0.07,0.23 0.08,0.23 0.09,0.24 0.1,0.25 0.1,0.24 0.11,0.25 0.12,0.25 0.13,0.25 0.14,0.25 0.15,0.24 0.15,0.24 0.17,0.23 0.18,0.22 0.18,0.22 0.2,0.2 0.21,0.19 0.22,0.18 0.23,0.16 0.25,0.14 0.12,0.07 0.13,0.06 0.13,0.05 0.14,0.05 0.14,0.05 0.14,0.04 0.14,0.03 0.15,0.03 0.15,0.02 0.16,0.02 0.16,0.01 0.16,0 c 0.25,0 1.45,0 2.49,-0.65 -1.4,-0.25 -2.39,-1.49 -2.39,-2.68 0,-0.8 0.54,-1.75 1.89,-1.75 1.1,0 2.69,0.9 2.69,2.89 0,2.59 -2.94,3.29 -4.63,3.29 -2.89,0 -4.64,-2.64 -5.23,-3.79 -1.25,3.29 -3.94,3.79 -5.38,3.79 -5.18,0 -8.02,-6.43 -8.02,-7.67 0,-0.5 0.5,-0.5 0.6,-0.5 0.39,0 0.54,0.1 0.64,0.54 1.7,5.29 4.98,6.53 6.68,6.53 0.95,0 2.69,-0.45 2.69,-3.33 0,-1.55 -0.85,-4.89 -2.69,-11.86 -0.8,-3.09 -2.54,-5.18 -4.73,-5.18 -0.3,0 -1.45,0 -2.49,0.65 1.24,0.25 2.34,1.29 2.34,2.69 0,1.34 -1.1,1.74 -1.85,1.74 -1.49,0 -2.73,-1.3 -2.73,-2.89 0,-2.29 2.48,-3.29 4.68,-3.29 3.28,0 5.08,3.49 5.23,3.79 0.6,-1.85 2.39,-3.79 5.38,-3.79 5.13,0 7.97,6.43 7.97,7.67 0,0.5 -0.45,0.5 -0.6,0.5 -0.45,0 -0.55,-0.2 -0.65,-0.55 -1.64,-5.33 -5.03,-6.52 -6.62,-6.52 -1.95,0 -2.74,1.59 -2.74,3.29 0,1.09 0.29,2.19 0.85,4.38 z"
           inkscape:connector-curvature="0"
           style="fill:#000000;stroke-width:0" /><path
           id="path4350"
           d="m 495.3,420.79 0,0.06 -0.01,0.05 0,0.05 -0.01,0.06 -0.01,0.06 -0.02,0.05 -0.01,0.06 -0.02,0.06 -0.03,0.05 -0.02,0.06 -0.03,0.05 -0.03,0.06 -0.03,0.05 -0.03,0.05 -0.04,0.05 -0.04,0.05 -0.05,0.05 -0.04,0.05 -0.05,0.04 -0.06,0.05 -0.05,0.04 -0.06,0.03 -0.06,0.04 -0.07,0.03 -0.07,0.03 -0.07,0.02 -0.07,0.02 -0.08,0.02 -0.08,0.02 -0.08,0.01 -0.09,0 -0.09,0.01 c -0.94,0 -1.95,-0.91 -1.95,-1.92 0,-0.59 0.45,-1.32 1.39,-1.32 1.02,0 1.96,0.97 1.96,1.91 z"
           inkscape:connector-curvature="0"
           style="fill:#000000;stroke-width:0" /><path
           id="path4352"
           d="m 488.18,403.08 -0.05,-0.17 -0.05,-0.17 -0.03,-0.08 -0.03,-0.09 -0.02,-0.08 -0.03,-0.09 -0.02,-0.09 -0.02,-0.09 -0.01,-0.1 -0.02,-0.09 -0.01,-0.1 -0.01,-0.05 0,-0.05 0,-0.05 -0.01,-0.06 0,-0.05 0,-0.06 c 0,-1.63 1.4,-2.96 3.31,-2.96 3.49,0 5.02,4.81 5.02,5.33 0,0.46 -0.45,0.46 -0.56,0.46 -0.48,0 -0.52,-0.21 -0.66,-0.59 -0.8,-2.79 -2.33,-4.22 -3.69,-4.22 -0.7,0 -0.88,0.45 -0.88,1.22 0,0.8 0.25,1.46 0.56,2.23 0.35,0.94 0.74,1.88 1.12,2.79 0.31,0.84 1.57,4.01 1.71,4.43 0.1,0.34 0.21,0.77 0.21,1.11 0,1.64 -1.4,2.97 -3.31,2.97 -3.46,0 -5.06,-4.74 -5.06,-5.34 0,-0.45 0.49,-0.45 0.59,-0.45 0.49,0 0.52,0.17 0.63,0.56 0.91,2.99 2.44,4.25 3.73,4.25 0.56,0 0.87,-0.28 0.87,-1.22 0,-0.8 -0.21,-1.32 -1.08,-3.48 z"
           inkscape:connector-curvature="0"
           style="fill:#000000;stroke-width:0" /></g>    </g>
    <g
       transform="matrix(0.46265667,0,0,0.4359119,47.274828,439.31291)"
       id="g4457">
      <g
         style="font-style:normal;font-variant:normal;font-weight:normal;font-stretch:normal;letter-spacing:normal;word-spacing:normal;text-anchor:start;fill:none;stroke:#000000;stroke-linecap:butt;stroke-linejoin:miter;stroke-miterlimit:10.43299961;stroke-opacity:1;stroke-dasharray:none;stroke-dashoffset:0"
         id="g4459"
         transform="matrix(1.0629921,0,0,-1.0629921,-186.02362,789.27165)"
         xml:space="preserve"
         stroke-miterlimit="10.433"
         font-style="normal"
         font-variant="normal"
         font-weight="normal"
         font-stretch="normal"
         font-size-adjust="none"
         letter-spacing="normal"
         word-spacing="normal"><path
           style="fill:#000000;stroke-width:0"
           inkscape:connector-curvature="0"
           d="m 493.86,440.62 0,0.02 0,0.01 0,0.02 -0.01,0.02 0,0.01 0,0.02 -0.01,0.02 0,0.02 -0.01,0.02 -0.01,0.02 -0.01,0.02 -0.01,0.02 -0.01,0.02 -0.01,0.02 -0.01,0.02 -0.02,0.02 -0.01,0.02 -0.02,0.02 -0.02,0.02 -0.02,0.02 -0.02,0.02 -0.02,0.01 -0.03,0.02 -0.03,0.01 -0.02,0.01 -0.02,0.01 -0.01,0 -0.02,0.01 -0.02,0 -0.01,0.01 -0.02,0 -0.02,0.01 -0.01,0 -0.02,0 -0.02,0 -0.02,0 -0.02,0.01 -0.02,0 -0.02,0 c -0.15,0 -0.2,-0.05 -0.75,-0.6 l -3.49,-3.84 c -0.44,0.7 -2.73,4.44 -8.26,4.44 -11.11,0 -22.32,-11.01 -22.32,-22.57 0,-8.22 5.88,-13.65 13.5,-13.65 4.33,0 8.12,2 10.76,4.29 4.63,4.08 5.48,8.61 5.48,8.77 0,0.49 -0.5,0.49 -0.6,0.49 -0.3,0 -0.55,-0.09 -0.65,-0.49 -0.44,-1.45 -1.59,-4.99 -5.03,-7.87 -3.43,-2.79 -6.57,-3.64 -9.16,-3.64 -4.49,0 -9.77,2.59 -9.77,10.36 0,2.84 1.05,10.91 6.03,16.74 3.04,3.53 7.72,6.02 12.16,6.02 5.08,0 8.02,-3.83 8.02,-9.61 0,-1.99 -0.16,-2.04 -0.16,-2.54 0,-0.5 0.55,-0.5 0.75,-0.5 0.65,0 0.65,0.1 0.9,1 z"
           id="path4461" /></g>    </g>
    <g
       id="g4589"
       transform="matrix(0.22351313,0,0,0.33385405,340.62452,418.99691)">
      <g
         word-spacing="normal"
         letter-spacing="normal"
         font-size-adjust="none"
         font-stretch="normal"
         font-weight="normal"
         font-variant="normal"
         font-style="normal"
         stroke-miterlimit="10.433"
         xml:space="preserve"
         transform="matrix(1.0629921,0,0,-1.0629921,-186.02362,789.27165)"
         id="g4591"
         style="font-style:normal;font-variant:normal;font-weight:normal;font-stretch:normal;letter-spacing:normal;word-spacing:normal;text-anchor:start;fill:none;stroke:#000000;stroke-linecap:butt;stroke-linejoin:miter;stroke-miterlimit:10.43299961;stroke-opacity:1;stroke-dasharray:none;stroke-dashoffset:0"><path
           id="path4593"
           d="m 480.16,426.47 -4.18,9.92 c -0.16,0.4 -0.25,0.59 -0.25,0.65 0,0.29 0.84,1.24 2.93,1.44 0.5,0.05 1,0.1 1,0.95 0,0.59 -0.6,0.59 -0.75,0.59 h -11.85 c -0.3,0 -0.9,0 -0.9,-0.99 0,-0.55 0.5,-0.55 1.15,-0.55 2.99,0 3.28,-0.5 3.73,-1.6 l 5.88,-13.9 -10.51,-11.3 -0.65,-0.55 c -2.44,-2.64 -4.78,-3.43 -7.32,-3.59 -0.65,-0.04 -1.1,-0.04 -1.1,-0.99 0,-0.05 0,-0.55 0.65,-0.55 h 10.26 c 0.3,0 0.9,0 0.9,1 0,0.5 -0.5,0.54 -0.6,0.54 -0.44,0.05 -1.99,0.16 -1.99,1.55 0,0.8 0.75,1.59 1.35,2.24 l 5.07,5.38 4.49,4.88 5.03,-11.9 c 0.2,-0.55 0.25,-0.6 0.25,-0.7 0,-0.4 -0.95,-1.25 -2.89,-1.45 -0.55,-0.04 -1,-0.09 -1,-0.94 0,-0.6 0.55,-0.6 0.75,-0.6 h 11.81 c 0.35,0 0.94,0 0.94,0.95 0,0.59 -0.49,0.59 -0.89,0.59 -3.34,0.05 -3.44,0.2 -4.29,2.19 -1.94,4.64 -5.28,12.41 -6.42,15.4 3.38,3.48 8.62,9.41 10.21,10.81 1.44,1.19 3.33,2.39 6.33,2.54 0.64,0.05 1.09,0.05 1.09,0.99 0,0.05 0,0.55 -0.65,0.55 h -10.21 c -0.3,0 -0.94,0 -0.94,-0.99 0,-0.35 0.25,-0.5 0.59,-0.55 0.45,-0.05 2,-0.15 2,-1.55 0,-0.69 -0.55,-1.34 -0.95,-1.79 z"
           inkscape:connector-curvature="0"
           style="fill:#000000;stroke-width:0" /><path
           id="path4595"
           d="m 508.3,420.79 0,0.06 -0.01,0.05 0,0.05 -0.01,0.06 -0.01,0.06 -0.02,0.05 -0.01,0.06 -0.02,0.06 -0.03,0.05 -0.02,0.06 -0.03,0.05 -0.03,0.06 -0.03,0.05 -0.03,0.05 -0.04,0.05 -0.04,0.05 -0.05,0.05 -0.04,0.05 -0.05,0.04 -0.06,0.05 -0.05,0.04 -0.06,0.03 -0.06,0.04 -0.07,0.03 -0.07,0.03 -0.07,0.02 -0.07,0.02 -0.08,0.02 -0.08,0.02 -0.08,0.01 -0.09,0 -0.09,0.01 c -0.94,0 -1.95,-0.91 -1.95,-1.92 0,-0.59 0.45,-1.32 1.39,-1.32 1.02,0 1.96,0.97 1.96,1.91 z"
           inkscape:connector-curvature="0"
           style="fill:#000000;stroke-width:0" /><path
           id="path4597"
           d="m 501.18,403.08 -0.05,-0.17 -0.05,-0.17 -0.03,-0.08 -0.03,-0.09 -0.02,-0.08 -0.03,-0.09 -0.02,-0.09 -0.02,-0.09 -0.01,-0.1 -0.02,-0.09 -0.01,-0.1 -0.01,-0.05 0,-0.05 0,-0.05 -0.01,-0.06 0,-0.05 0,-0.06 c 0,-1.63 1.4,-2.96 3.31,-2.96 3.49,0 5.02,4.81 5.02,5.33 0,0.46 -0.45,0.46 -0.56,0.46 -0.48,0 -0.52,-0.21 -0.66,-0.59 -0.8,-2.79 -2.33,-4.22 -3.69,-4.22 -0.7,0 -0.88,0.45 -0.88,1.22 0,0.8 0.25,1.46 0.56,2.23 0.35,0.94 0.74,1.88 1.12,2.79 0.31,0.84 1.57,4.01 1.71,4.43 0.1,0.34 0.21,0.77 0.21,1.11 0,1.64 -1.4,2.97 -3.31,2.97 -3.46,0 -5.06,-4.74 -5.06,-5.34 0,-0.45 0.49,-0.45 0.59,-0.45 0.49,0 0.52,0.17 0.63,0.56 0.91,2.99 2.44,4.25 3.73,4.25 0.56,0 0.87,-0.28 0.87,-1.22 0,-0.8 -0.21,-1.32 -1.08,-3.48 z"
           inkscape:connector-curvature="0"
           style="fill:#000000;stroke-width:0" /></g>    </g>
  </g>
</svg>
