<?xml version="1.0" encoding="UTF-8" standalone="no"?>
<!-- Created with Inkscape (http://www.inkscape.org/) -->
<svg
   xmlns:dc="http://purl.org/dc/elements/1.1/"
   xmlns:cc="http://web.resource.org/cc/"
   xmlns:rdf="http://www.w3.org/1999/02/22-rdf-syntax-ns#"
   xmlns:svg="http://www.w3.org/2000/svg"
   xmlns="http://www.w3.org/2000/svg"
   xmlns:sodipodi="http://sodipodi.sourceforge.net/DTD/sodipodi-0.dtd"
   xmlns:inkscape="http://www.inkscape.org/namespaces/inkscape"
   width="600"
   height="600"
   id="svg8251"
   sodipodi:version="0.32"
   inkscape:version="0.45"
   version="1.0"
   sodipodi:docname="line_with_outliers.svg"
   inkscape:output_extension="org.inkscape.output.svg.inkscape"
   sodipodi:docbase="C:\Documents and Settings\smid\Desktop"
   sodipodi:modified="true">
  <defs
     id="defs8253" />
  <sodipodi:namedview
     id="base"
     pagecolor="#ffffff"
     bordercolor="#666666"
     borderopacity="1.0"
     gridtolerance="10000"
     guidetolerance="10"
     objecttolerance="10"
     inkscape:pageopacity="0.0"
     inkscape:pageshadow="2"
     inkscape:zoom="1.1561678"
     inkscape:cx="67.396014"
     inkscape:cy="371.80332"
     inkscape:document-units="px"
     inkscape:current-layer="layer1"
     inkscape:window-width="1600"
     inkscape:window-height="1144"
     inkscape:window-x="-4"
     inkscape:window-y="-4"
     width="600px"
     height="600px" />
  <metadata
     id="metadata8256">
    <rdf:RDF>
      <cc:Work
         rdf:about="">
        <dc:format>image/svg+xml</dc:format>
        <dc:type
           rdf:resource="http://purl.org/dc/dcmitype/StillImage" />
      </cc:Work>
    </rdf:RDF>
  </metadata>
  <g
     inkscape:label="Layer 1"
     inkscape:groupmode="layer"
     id="layer1"
     transform="translate(-81.857155,-65.647881)">
    <path
       sodipodi:type="arc"
       style="fill:#7f7f7f;fill-opacity:1;stroke:none;stroke-width:2;stroke-miterlimit:4;stroke-dasharray:none;stroke-dashoffset:0;stroke-opacity:1"
       id="path3133"
       sodipodi:cx="329.30972"
       sodipodi:cy="82.615738"
       sodipodi:rx="2.0203052"
       sodipodi:ry="2.0203052"
       d="M 331.33003 82.615738 A 2.0203052 2.0203052 0 1 1  327.28942,82.615738 A 2.0203052 2.0203052 0 1 1  331.33003 82.615738 z"
       transform="matrix(3.0897095,0,0,3.0897095,-637.00729,-68.439162)" />
    <path
       transform="matrix(3.0897095,0,0,3.0897095,-724.18125,97.080993)"
       d="M 331.33003 82.615738 A 2.0203052 2.0203052 0 1 1  327.28942,82.615738 A 2.0203052 2.0203052 0 1 1  331.33003 82.615738 z"
       sodipodi:ry="2.0203052"
       sodipodi:rx="2.0203052"
       sodipodi:cy="82.615738"
       sodipodi:cx="329.30972"
       id="path4104"
       style="fill:#7f7f7f;fill-opacity:1;stroke:none;stroke-width:2;stroke-miterlimit:4;stroke-dasharray:none;stroke-dashoffset:0;stroke-opacity:1"
       sodipodi:type="arc" />
    <path
       sodipodi:type="arc"
       style="fill:#7f7f7f;fill-opacity:1;stroke:none;stroke-width:2;stroke-miterlimit:4;stroke-dasharray:none;stroke-dashoffset:0;stroke-opacity:1"
       id="path4106"
       sodipodi:cx="329.30972"
       sodipodi:cy="82.615738"
       sodipodi:rx="2.0203052"
       sodipodi:ry="2.0203052"
       d="M 331.33003 82.615738 A 2.0203052 2.0203052 0 1 1  327.28942,82.615738 A 2.0203052 2.0203052 0 1 1  331.33003 82.615738 z"
       transform="matrix(3.0897095,0,0,3.0897095,-673.42171,-7.748431)" />
    <path
       transform="matrix(3.0897095,0,0,3.0897095,-611.62752,-13.265756)"
       d="M 331.33003 82.615738 A 2.0203052 2.0203052 0 1 1  327.28942,82.615738 A 2.0203052 2.0203052 0 1 1  331.33003 82.615738 z"
       sodipodi:ry="2.0203052"
       sodipodi:rx="2.0203052"
       sodipodi:cy="82.615738"
       sodipodi:cx="329.30972"
       id="path4108"
       style="fill:#7f7f7f;fill-opacity:1;stroke:none;stroke-width:2;stroke-miterlimit:4;stroke-dasharray:none;stroke-dashoffset:0;stroke-opacity:1"
       sodipodi:type="arc" />
    <path
       sodipodi:type="arc"
       style="fill:#7f7f7f;fill-opacity:1;stroke:none;stroke-width:2;stroke-miterlimit:4;stroke-dasharray:none;stroke-dashoffset:0;stroke-opacity:1"
       id="path4110"
       sodipodi:cx="329.30972"
       sodipodi:cy="82.615738"
       sodipodi:rx="2.0203052"
       sodipodi:ry="2.0203052"
       d="M 331.33003 82.615738 A 2.0203052 2.0203052 0 1 1  327.28942,82.615738 A 2.0203052 2.0203052 0 1 1  331.33003 82.615738 z"
       transform="matrix(3.0897095,0,0,3.0897095,-741.83671,223.97979)" />
    <path
       transform="matrix(3.0897095,0,0,3.0897095,-699.90494,177.63415)"
       d="M 331.33003 82.615738 A 2.0203052 2.0203052 0 1 1  327.28942,82.615738 A 2.0203052 2.0203052 0 1 1  331.33003 82.615738 z"
       sodipodi:ry="2.0203052"
       sodipodi:rx="2.0203052"
       sodipodi:cy="82.615738"
       sodipodi:cx="329.30972"
       id="path4112"
       style="fill:#7f7f7f;fill-opacity:1;stroke:none;stroke-width:2;stroke-miterlimit:4;stroke-dasharray:none;stroke-dashoffset:0;stroke-opacity:1"
       sodipodi:type="arc" />
    <path
       sodipodi:type="arc"
       style="fill:#7f7f7f;fill-opacity:1;stroke:none;stroke-width:2;stroke-miterlimit:4;stroke-dasharray:none;stroke-dashoffset:0;stroke-opacity:1"
       id="path4114"
       sodipodi:cx="329.30972"
       sodipodi:cy="82.615738"
       sodipodi:rx="2.0203052"
       sodipodi:ry="2.0203052"
       d="M 331.33003 82.615738 A 2.0203052 2.0203052 0 1 1  327.28942,82.615738 A 2.0203052 2.0203052 0 1 1  331.33003 82.615738 z"
       transform="matrix(3.0897095,0,0,3.0897095,-480.31488,-40.852444)" />
    <path
       transform="matrix(3.0897095,0,0,3.0897095,-438.3831,-69.542621)"
       d="M 331.33003 82.615738 A 2.0203052 2.0203052 0 1 1  327.28942,82.615738 A 2.0203052 2.0203052 0 1 1  331.33003 82.615738 z"
       sodipodi:ry="2.0203052"
       sodipodi:rx="2.0203052"
       sodipodi:cy="82.615738"
       sodipodi:cx="329.30972"
       id="path4116"
       style="fill:#7f7f7f;fill-opacity:1;stroke:none;stroke-width:2;stroke-miterlimit:4;stroke-dasharray:none;stroke-dashoffset:0;stroke-opacity:1"
       sodipodi:type="arc" />
    <path
       sodipodi:type="arc"
       style="fill:#7f7f7f;fill-opacity:1;stroke:none;stroke-width:2;stroke-miterlimit:4;stroke-dasharray:none;stroke-dashoffset:0;stroke-opacity:1"
       id="path4118"
       sodipodi:cx="329.30972"
       sodipodi:cy="82.615738"
       sodipodi:rx="2.0203052"
       sodipodi:ry="2.0203052"
       d="M 331.33003 82.615738 A 2.0203052 2.0203052 0 1 1  327.28942,82.615738 A 2.0203052 2.0203052 0 1 1  331.33003 82.615738 z"
       transform="matrix(3.0897095,0,0,3.0897095,-641.42115,113.63303)" />
    <path
       transform="matrix(3.0897095,0,0,3.0897095,-520.03973,-18.783112)"
       d="M 331.33003 82.615738 A 2.0203052 2.0203052 0 1 1  327.28942,82.615738 A 2.0203052 2.0203052 0 1 1  331.33003 82.615738 z"
       sodipodi:ry="2.0203052"
       sodipodi:rx="2.0203052"
       sodipodi:cy="82.615738"
       sodipodi:cx="329.30972"
       id="path4120"
       style="fill:#7f7f7f;fill-opacity:1;stroke:none;stroke-width:2;stroke-miterlimit:4;stroke-dasharray:none;stroke-dashoffset:0;stroke-opacity:1"
       sodipodi:type="arc" />
    <path
       sodipodi:type="arc"
       style="fill:#7f7f7f;fill-opacity:1;stroke:none;stroke-width:2;stroke-miterlimit:4;stroke-dasharray:none;stroke-dashoffset:0;stroke-opacity:1"
       id="path4122"
       sodipodi:cx="329.30972"
       sodipodi:cy="82.615738"
       sodipodi:rx="2.0203052"
       sodipodi:ry="2.0203052"
       d="M 331.33003 82.615738 A 2.0203052 2.0203052 0 1 1  327.28942,82.615738 A 2.0203052 2.0203052 0 1 1  331.33003 82.615738 z"
       transform="matrix(3.0897095,0,0,3.0897095,-607.21365,78.322038)" />
    <path
       transform="matrix(3.0897095,0,0,3.0897095,-897.42564,365.22367)"
       d="M 331.33003 82.615738 A 2.0203052 2.0203052 0 1 1  327.28942,82.615738 A 2.0203052 2.0203052 0 1 1  331.33003 82.615738 z"
       sodipodi:ry="2.0203052"
       sodipodi:rx="2.0203052"
       sodipodi:cy="82.615738"
       sodipodi:cx="329.30972"
       id="path4124"
       style="fill:#7f7f7f;fill-opacity:1;stroke:none;stroke-width:2;stroke-miterlimit:4;stroke-dasharray:none;stroke-dashoffset:0;stroke-opacity:1"
       sodipodi:type="arc" />
    <path
       sodipodi:type="arc"
       style="fill:#7f7f7f;fill-opacity:1;stroke:none;stroke-width:2;stroke-miterlimit:4;stroke-dasharray:none;stroke-dashoffset:0;stroke-opacity:1"
       id="path4126"
       sodipodi:cx="329.30972"
       sodipodi:cy="82.615738"
       sodipodi:rx="2.0203052"
       sodipodi:ry="2.0203052"
       d="M 331.33003 82.615738 A 2.0203052 2.0203052 0 1 1  327.28942,82.615738 A 2.0203052 2.0203052 0 1 1  331.33003 82.615738 z"
       transform="matrix(3.0897095,0,0,3.0897095,-862.11468,338.74044)" />
    <path
       transform="matrix(3.0897095,0,0,3.0897095,-653.55929,127.97809)"
       d="M 331.33003 82.615738 A 2.0203052 2.0203052 0 1 1  327.28942,82.615738 A 2.0203052 2.0203052 0 1 1  331.33003 82.615738 z"
       sodipodi:ry="2.0203052"
       sodipodi:rx="2.0203052"
       sodipodi:cy="82.615738"
       sodipodi:cx="329.30972"
       id="path4128"
       style="fill:#7f7f7f;fill-opacity:1;stroke:none;stroke-width:2;stroke-miterlimit:4;stroke-dasharray:none;stroke-dashoffset:0;stroke-opacity:1"
       sodipodi:type="arc" />
    <path
       sodipodi:type="arc"
       style="fill:#7f7f7f;fill-opacity:1;stroke:none;stroke-width:2;stroke-miterlimit:4;stroke-dasharray:none;stroke-dashoffset:0;stroke-opacity:1"
       id="path4130"
       sodipodi:cx="329.30972"
       sodipodi:cy="82.615738"
       sodipodi:rx="2.0203052"
       sodipodi:ry="2.0203052"
       d="M 331.33003 82.615738 A 2.0203052 2.0203052 0 1 1  327.28942,82.615738 A 2.0203052 2.0203052 0 1 1  331.33003 82.615738 z"
       transform="matrix(3.0897095,0,0,3.0897095,-787.0789,261.4977)" />
    <path
       transform="matrix(3.0897095,0,0,3.0897095,-527.76401,7.700116)"
       d="M 331.33003 82.615738 A 2.0203052 2.0203052 0 1 1  327.28942,82.615738 A 2.0203052 2.0203052 0 1 1  331.33003 82.615738 z"
       sodipodi:ry="2.0203052"
       sodipodi:rx="2.0203052"
       sodipodi:cy="82.615738"
       sodipodi:cx="329.30972"
       id="path4132"
       style="fill:#7f7f7f;fill-opacity:1;stroke:none;stroke-width:2;stroke-miterlimit:4;stroke-dasharray:none;stroke-dashoffset:0;stroke-opacity:1"
       sodipodi:type="arc" />
    <path
       sodipodi:type="arc"
       style="fill:#7f7f7f;fill-opacity:1;stroke:none;stroke-width:2;stroke-miterlimit:4;stroke-dasharray:none;stroke-dashoffset:0;stroke-opacity:1"
       id="path4134"
       sodipodi:cx="329.30972"
       sodipodi:cy="82.615738"
       sodipodi:rx="2.0203052"
       sodipodi:ry="2.0203052"
       d="M 331.33003 82.615738 A 2.0203052 2.0203052 0 1 1  327.28942,82.615738 A 2.0203052 2.0203052 0 1 1  331.33003 82.615738 z"
       transform="matrix(3.0897095,0,0,3.0897095,-575.2131,67.287388)" />
    <path
       transform="matrix(3.0897095,0,0,3.0897095,-384.31318,-124.716)"
       d="M 331.33003 82.615738 A 2.0203052 2.0203052 0 1 1  327.28942,82.615738 A 2.0203052 2.0203052 0 1 1  331.33003 82.615738 z"
       sodipodi:ry="2.0203052"
       sodipodi:rx="2.0203052"
       sodipodi:cy="82.615738"
       sodipodi:cx="329.30972"
       id="path4136"
       style="fill:#7f7f7f;fill-opacity:1;stroke:none;stroke-width:2;stroke-miterlimit:4;stroke-dasharray:none;stroke-dashoffset:0;stroke-opacity:1"
       sodipodi:type="arc" />
    <path
       sodipodi:type="arc"
       style="fill:#7f7f7f;fill-opacity:1;stroke:none;stroke-width:2;stroke-miterlimit:4;stroke-dasharray:none;stroke-dashoffset:0;stroke-opacity:1"
       id="path4138"
       sodipodi:cx="329.30972"
       sodipodi:cy="82.615738"
       sodipodi:rx="2.0203052"
       sodipodi:ry="2.0203052"
       d="M 331.33003 82.615738 A 2.0203052 2.0203052 0 1 1  327.28942,82.615738 A 2.0203052 2.0203052 0 1 1  331.33003 82.615738 z"
       transform="matrix(3.0897095,0,0,3.0897095,-422.93455,-91.61198)" />
    <path
       transform="matrix(3.0897095,0,0,3.0897095,-844.45922,312.25721)"
       d="M 331.33003 82.615738 A 2.0203052 2.0203052 0 1 1  327.28942,82.615738 A 2.0203052 2.0203052 0 1 1  331.33003 82.615738 z"
       sodipodi:ry="2.0203052"
       sodipodi:rx="2.0203052"
       sodipodi:cy="82.615738"
       sodipodi:cx="329.30972"
       id="path4140"
       style="fill:#7f7f7f;fill-opacity:1;stroke:none;stroke-width:2;stroke-miterlimit:4;stroke-dasharray:none;stroke-dashoffset:0;stroke-opacity:1"
       sodipodi:type="arc" />
    <path
       sodipodi:type="arc"
       style="fill:#7f7f7f;fill-opacity:1;stroke:none;stroke-width:2;stroke-miterlimit:4;stroke-dasharray:none;stroke-dashoffset:0;stroke-opacity:1"
       id="path4142"
       sodipodi:cx="329.30972"
       sodipodi:cy="82.615738"
       sodipodi:rx="2.0203052"
       sodipodi:ry="2.0203052"
       d="M 331.33003 82.615738 A 2.0203052 2.0203052 0 1 1  327.28942,82.615738 A 2.0203052 2.0203052 0 1 1  331.33003 82.615738 z"
       transform="matrix(3.0897095,0,0,3.0897095,-806.94131,302.32602)" />
    <path
       transform="matrix(3.0897095,0,0,3.0897095,-766.11302,230.60061)"
       d="M 331.33003 82.615738 A 2.0203052 2.0203052 0 1 1  327.28942,82.615738 A 2.0203052 2.0203052 0 1 1  331.33003 82.615738 z"
       sodipodi:ry="2.0203052"
       sodipodi:rx="2.0203052"
       sodipodi:cy="82.615738"
       sodipodi:cx="329.30972"
       id="path4144"
       style="fill:#7f7f7f;fill-opacity:1;stroke:none;stroke-width:2;stroke-miterlimit:4;stroke-dasharray:none;stroke-dashoffset:0;stroke-opacity:1"
       sodipodi:type="arc" />
    <path
       sodipodi:type="arc"
       style="fill:#7f7f7f;fill-opacity:1;stroke:none;stroke-width:2;stroke-miterlimit:4;stroke-dasharray:none;stroke-dashoffset:0;stroke-opacity:1"
       id="path4146"
       sodipodi:cx="329.30972"
       sodipodi:cy="82.615738"
       sodipodi:rx="2.0203052"
       sodipodi:ry="2.0203052"
       d="M 331.33003 82.615738 A 2.0203052 2.0203052 0 1 1  327.28942,82.615738 A 2.0203052 2.0203052 0 1 1  331.33003 82.615738 z"
       transform="matrix(3.0897095,0,0,3.0897095,-726.38816,196.3931)" />
    <path
       transform="matrix(3.0897095,0,0,3.0897095,-680.04252,162.1856)"
       d="M 331.33003 82.615738 A 2.0203052 2.0203052 0 1 1  327.28942,82.615738 A 2.0203052 2.0203052 0 1 1  331.33003 82.615738 z"
       sodipodi:ry="2.0203052"
       sodipodi:rx="2.0203052"
       sodipodi:cy="82.615738"
       sodipodi:cx="329.30972"
       id="path4148"
       style="fill:#7f7f7f;fill-opacity:1;stroke:none;stroke-width:2;stroke-miterlimit:4;stroke-dasharray:none;stroke-dashoffset:0;stroke-opacity:1"
       sodipodi:type="arc" />
    <path
       sodipodi:type="arc"
       style="fill:#7f7f7f;fill-opacity:1;stroke:none;stroke-width:2;stroke-miterlimit:4;stroke-dasharray:none;stroke-dashoffset:0;stroke-opacity:1"
       id="path4150"
       sodipodi:cx="329.30972"
       sodipodi:cy="82.615738"
       sodipodi:rx="2.0203052"
       sodipodi:ry="2.0203052"
       d="M 331.33003 82.615738 A 2.0203052 2.0203052 0 1 1  327.28942,82.615738 A 2.0203052 2.0203052 0 1 1  331.33003 82.615738 z"
       transform="matrix(3.0897095,0,0,3.0897095,-616.04142,112.52954)" />
    <path
       transform="matrix(3.0897095,0,0,3.0897095,-494.65996,-28.714304)"
       d="M 331.33003 82.615738 A 2.0203052 2.0203052 0 1 1  327.28942,82.615738 A 2.0203052 2.0203052 0 1 1  331.33003 82.615738 z"
       sodipodi:ry="2.0203052"
       sodipodi:rx="2.0203052"
       sodipodi:cy="82.615738"
       sodipodi:cx="329.30972"
       id="path4152"
       style="fill:#7f7f7f;fill-opacity:1;stroke:none;stroke-width:2;stroke-miterlimit:4;stroke-dasharray:none;stroke-dashoffset:0;stroke-opacity:1"
       sodipodi:type="arc" />
    <path
       sodipodi:type="arc"
       style="fill:#7f7f7f;fill-opacity:1;stroke:none;stroke-width:2;stroke-miterlimit:4;stroke-dasharray:none;stroke-dashoffset:0;stroke-opacity:1"
       id="path4154"
       sodipodi:cx="329.30972"
       sodipodi:cy="82.615738"
       sodipodi:rx="2.0203052"
       sodipodi:ry="2.0203052"
       d="M 331.33003 82.615738 A 2.0203052 2.0203052 0 1 1  327.28942,82.615738 A 2.0203052 2.0203052 0 1 1  331.33003 82.615738 z"
       transform="matrix(3.0897095,0,0,3.0897095,-554.2472,38.597211)" />
    <path
       transform="matrix(3.0897095,0,0,3.0897095,-446.10737,-58.50794)"
       d="M 331.33003 82.615738 A 2.0203052 2.0203052 0 1 1  327.28942,82.615738 A 2.0203052 2.0203052 0 1 1  331.33003 82.615738 z"
       sodipodi:ry="2.0203052"
       sodipodi:rx="2.0203052"
       sodipodi:cy="82.615738"
       sodipodi:cx="329.30972"
       id="path4156"
       style="fill:#7f7f7f;fill-opacity:1;stroke:none;stroke-width:2;stroke-miterlimit:4;stroke-dasharray:none;stroke-dashoffset:0;stroke-opacity:1"
       sodipodi:type="arc" />
    <path
       transform="matrix(3.0897095,0,0,3.0897095,-694.38761,50.735351)"
       d="M 331.33003 82.615738 A 2.0203052 2.0203052 0 1 1  327.28942,82.615738 A 2.0203052 2.0203052 0 1 1  331.33003 82.615738 z"
       sodipodi:ry="2.0203052"
       sodipodi:rx="2.0203052"
       sodipodi:cy="82.615738"
       sodipodi:cx="329.30972"
       id="path4160"
       style="fill:#7f7f7f;fill-opacity:1;stroke:none;stroke-width:2;stroke-miterlimit:4;stroke-dasharray:none;stroke-dashoffset:0;stroke-opacity:1"
       sodipodi:type="arc" />
    <path
       sodipodi:type="arc"
       style="fill:#7f7f7f;fill-opacity:1;stroke:none;stroke-width:2;stroke-miterlimit:4;stroke-dasharray:none;stroke-dashoffset:0;stroke-opacity:1"
       id="path4162"
       sodipodi:cx="329.30972"
       sodipodi:cy="82.615738"
       sodipodi:rx="2.0203052"
       sodipodi:ry="2.0203052"
       d="M 331.33003 82.615738 A 2.0203052 2.0203052 0 1 1  327.28942,82.615738 A 2.0203052 2.0203052 0 1 1  331.33003 82.615738 z"
       transform="matrix(3.0897095,0,0,3.0897095,-859.90777,188.66883)" />
    <path
       transform="matrix(3.0897095,0,0,3.0897095,-778.25116,141.21973)"
       d="M 331.33003 82.615738 A 2.0203052 2.0203052 0 1 1  327.28942,82.615738 A 2.0203052 2.0203052 0 1 1  331.33003 82.615738 z"
       sodipodi:ry="2.0203052"
       sodipodi:rx="2.0203052"
       sodipodi:cy="82.615738"
       sodipodi:cx="329.30972"
       id="path4164"
       style="fill:#7f7f7f;fill-opacity:1;stroke:none;stroke-width:2;stroke-miterlimit:4;stroke-dasharray:none;stroke-dashoffset:0;stroke-opacity:1"
       sodipodi:type="arc" />
    <path
       sodipodi:type="arc"
       style="fill:#7f7f7f;fill-opacity:1;stroke:none;stroke-width:2;stroke-miterlimit:4;stroke-dasharray:none;stroke-dashoffset:0;stroke-opacity:1"
       id="path4166"
       sodipodi:cx="329.30972"
       sodipodi:cy="82.615738"
       sodipodi:rx="2.0203052"
       sodipodi:ry="2.0203052"
       d="M 331.33003 82.615738 A 2.0203052 2.0203052 0 1 1  327.28942,82.615738 A 2.0203052 2.0203052 0 1 1  331.33003 82.615738 z"
       transform="matrix(3.0897095,0,0,3.0897095,-815.76904,49.631892)" />
    <path
       transform="matrix(3.0897095,0,0,3.0897095,-894.11527,110.32262)"
       d="M 331.33003 82.615738 A 2.0203052 2.0203052 0 1 1  327.28942,82.615738 A 2.0203052 2.0203052 0 1 1  331.33003 82.615738 z"
       sodipodi:ry="2.0203052"
       sodipodi:rx="2.0203052"
       sodipodi:cy="82.615738"
       sodipodi:cx="329.30972"
       id="path4168"
       style="fill:#7f7f7f;fill-opacity:1;stroke:none;stroke-width:2;stroke-miterlimit:4;stroke-dasharray:none;stroke-dashoffset:0;stroke-opacity:1"
       sodipodi:type="arc" />
    <path
       sodipodi:type="arc"
       style="fill:#7f7f7f;fill-opacity:1;stroke:none;stroke-width:2;stroke-miterlimit:4;stroke-dasharray:none;stroke-dashoffset:0;stroke-opacity:1"
       id="path4170"
       sodipodi:cx="329.30972"
       sodipodi:cy="82.615738"
       sodipodi:rx="2.0203052"
       sodipodi:ry="2.0203052"
       d="M 331.33003 82.615738 A 2.0203052 2.0203052 0 1 1  327.28942,82.615738 A 2.0203052 2.0203052 0 1 1  331.33003 82.615738 z"
       transform="matrix(3.0897095,0,0,3.0897095,-751.76793,-1.127616)" />
    <path
       sodipodi:type="arc"
       style="fill:#7f7f7f;fill-opacity:1;stroke:none;stroke-width:2;stroke-miterlimit:4;stroke-dasharray:none;stroke-dashoffset:0;stroke-opacity:1"
       id="path4172"
       sodipodi:cx="329.30972"
       sodipodi:cy="82.615738"
       sodipodi:rx="2.0203052"
       sodipodi:ry="2.0203052"
       d="M 331.33003 82.615738 A 2.0203052 2.0203052 0 1 1  327.28942,82.615738 A 2.0203052 2.0203052 0 1 1  331.33003 82.615738 z"
       transform="matrix(3.0897095,0,0,3.0897095,-426.24499,130.18504)" />
    <path
       sodipodi:type="arc"
       style="fill:#7f7f7f;fill-opacity:1;stroke:none;stroke-width:2;stroke-miterlimit:4;stroke-dasharray:none;stroke-dashoffset:0;stroke-opacity:1"
       id="path4174"
       sodipodi:cx="329.30972"
       sodipodi:cy="82.615738"
       sodipodi:rx="2.0203052"
       sodipodi:ry="2.0203052"
       d="M 331.33003 82.615738 A 2.0203052 2.0203052 0 1 1  327.28942,82.615738 A 2.0203052 2.0203052 0 1 1  331.33003 82.615738 z"
       transform="matrix(3.0897095,0,0,3.0897095,-396.45136,83.839394)" />
    <path
       sodipodi:type="arc"
       style="fill:#7f7f7f;fill-opacity:1;stroke:none;stroke-width:2;stroke-miterlimit:4;stroke-dasharray:none;stroke-dashoffset:0;stroke-opacity:1"
       id="path4176"
       sodipodi:cx="329.30972"
       sodipodi:cy="82.615738"
       sodipodi:rx="2.0203052"
       sodipodi:ry="2.0203052"
       d="M 331.33003 82.615738 A 2.0203052 2.0203052 0 1 1  327.28942,82.615738 A 2.0203052 2.0203052 0 1 1  331.33003 82.615738 z"
       transform="matrix(3.0897095,0,0,3.0897095,-471.48717,152.25441)" />
    <path
       transform="matrix(3.0897095,0,0,3.0897095,-517.83279,82.735935)"
       d="M 331.33003 82.615738 A 2.0203052 2.0203052 0 1 1  327.28942,82.615738 A 2.0203052 2.0203052 0 1 1  331.33003 82.615738 z"
       sodipodi:ry="2.0203052"
       sodipodi:rx="2.0203052"
       sodipodi:cy="82.615738"
       sodipodi:cx="329.30972"
       id="path4178"
       style="fill:#7f7f7f;fill-opacity:1;stroke:none;stroke-width:2;stroke-miterlimit:4;stroke-dasharray:none;stroke-dashoffset:0;stroke-opacity:1"
       sodipodi:type="arc" />
    <path
       transform="matrix(3.0897095,0,0,3.0897095,-453.83168,31.976396)"
       d="M 331.33003 82.615738 A 2.0203052 2.0203052 0 1 1  327.28942,82.615738 A 2.0203052 2.0203052 0 1 1  331.33003 82.615738 z"
       sodipodi:ry="2.0203052"
       sodipodi:rx="2.0203052"
       sodipodi:cy="82.615738"
       sodipodi:cx="329.30972"
       id="path4180"
       style="fill:#7f7f7f;fill-opacity:1;stroke:none;stroke-width:2;stroke-miterlimit:4;stroke-dasharray:none;stroke-dashoffset:0;stroke-opacity:1"
       sodipodi:type="arc" />
    <path
       transform="matrix(3.0897095,0,0,3.0897095,-521.14319,345.36125)"
       d="M 331.33003 82.615738 A 2.0203052 2.0203052 0 1 1  327.28942,82.615738 A 2.0203052 2.0203052 0 1 1  331.33003 82.615738 z"
       sodipodi:ry="2.0203052"
       sodipodi:rx="2.0203052"
       sodipodi:cy="82.615738"
       sodipodi:cx="329.30972"
       id="path4182"
       style="fill:#7f7f7f;fill-opacity:1;stroke:none;stroke-width:2;stroke-miterlimit:4;stroke-dasharray:none;stroke-dashoffset:0;stroke-opacity:1"
       sodipodi:type="arc" />
    <path
       transform="matrix(3.0897095,0,0,3.0897095,-491.34956,299.01561)"
       d="M 331.33003 82.615738 A 2.0203052 2.0203052 0 1 1  327.28942,82.615738 A 2.0203052 2.0203052 0 1 1  331.33003 82.615738 z"
       sodipodi:ry="2.0203052"
       sodipodi:rx="2.0203052"
       sodipodi:cy="82.615738"
       sodipodi:cx="329.30972"
       id="path4184"
       style="fill:#7f7f7f;fill-opacity:1;stroke:none;stroke-width:2;stroke-miterlimit:4;stroke-dasharray:none;stroke-dashoffset:0;stroke-opacity:1"
       sodipodi:type="arc" />
    <path
       transform="matrix(3.0897095,0,0,3.0897095,-566.3854,335.43003)"
       d="M 331.33003 82.615738 A 2.0203052 2.0203052 0 1 1  327.28942,82.615738 A 2.0203052 2.0203052 0 1 1  331.33003 82.615738 z"
       sodipodi:ry="2.0203052"
       sodipodi:rx="2.0203052"
       sodipodi:cy="82.615738"
       sodipodi:cx="329.30972"
       id="path4186"
       style="fill:#7f7f7f;fill-opacity:1;stroke:none;stroke-width:2;stroke-miterlimit:4;stroke-dasharray:none;stroke-dashoffset:0;stroke-opacity:1"
       sodipodi:type="arc" />
    <path
       sodipodi:type="arc"
       style="fill:#7f7f7f;fill-opacity:1;stroke:none;stroke-width:2;stroke-miterlimit:4;stroke-dasharray:none;stroke-dashoffset:0;stroke-opacity:1"
       id="path4188"
       sodipodi:cx="329.30972"
       sodipodi:cy="82.615738"
       sodipodi:rx="2.0203052"
       sodipodi:ry="2.0203052"
       d="M 331.33003 82.615738 A 2.0203052 2.0203052 0 1 1  327.28942,82.615738 A 2.0203052 2.0203052 0 1 1  331.33003 82.615738 z"
       transform="matrix(3.0897095,0,0,3.0897095,-589.55819,243.84224)" />
    <path
       sodipodi:type="arc"
       style="fill:#7f7f7f;fill-opacity:1;stroke:none;stroke-width:2;stroke-miterlimit:4;stroke-dasharray:none;stroke-dashoffset:0;stroke-opacity:1"
       id="path4190"
       sodipodi:cx="329.30972"
       sodipodi:cy="82.615738"
       sodipodi:rx="2.0203052"
       sodipodi:ry="2.0203052"
       d="M 331.33003 82.615738 A 2.0203052 2.0203052 0 1 1  327.28942,82.615738 A 2.0203052 2.0203052 0 1 1  331.33003 82.615738 z"
       transform="matrix(3.0897095,0,0,3.0897095,-523.35014,194.18619)" />
    <path
       sodipodi:type="arc"
       style="fill:#7f7f7f;fill-opacity:1;stroke:none;stroke-width:2;stroke-miterlimit:4;stroke-dasharray:none;stroke-dashoffset:0;stroke-opacity:1"
       id="path4192"
       sodipodi:cx="329.30972"
       sodipodi:cy="82.615738"
       sodipodi:rx="2.0203052"
       sodipodi:ry="2.0203052"
       d="M 331.33003 82.615738 A 2.0203052 2.0203052 0 1 1  327.28942,82.615738 A 2.0203052 2.0203052 0 1 1  331.33003 82.615738 z"
       transform="matrix(3.0897095,0,0,3.0897095,-746.25061,-48.576717)" />
    <path
       transform="matrix(3.0897095,0,0,3.0897095,-695.49107,-153.40617)"
       d="M 331.33003 82.615738 A 2.0203052 2.0203052 0 1 1  327.28942,82.615738 A 2.0203052 2.0203052 0 1 1  331.33003 82.615738 z"
       sodipodi:ry="2.0203052"
       sodipodi:rx="2.0203052"
       sodipodi:cy="82.615738"
       sodipodi:cx="329.30972"
       id="path4194"
       style="fill:#7f7f7f;fill-opacity:1;stroke:none;stroke-width:2;stroke-miterlimit:4;stroke-dasharray:none;stroke-dashoffset:0;stroke-opacity:1"
       sodipodi:type="arc" />
    <path
       sodipodi:type="arc"
       style="fill:#7f7f7f;fill-opacity:1;stroke:none;stroke-width:2;stroke-miterlimit:4;stroke-dasharray:none;stroke-dashoffset:0;stroke-opacity:1"
       id="path4196"
       sodipodi:cx="329.30972"
       sodipodi:cy="82.615738"
       sodipodi:rx="2.0203052"
       sodipodi:ry="2.0203052"
       d="M 331.33003 82.615738 A 2.0203052 2.0203052 0 1 1  327.28942,82.615738 A 2.0203052 2.0203052 0 1 1  331.33003 82.615738 z"
       transform="matrix(3.0897095,0,0,3.0897095,-716.45697,-94.92236)" />
    <path
       transform="matrix(3.0897095,0,0,3.0897095,-837.8384,-96.02585)"
       d="M 331.33003 82.615738 A 2.0203052 2.0203052 0 1 1  327.28942,82.615738 A 2.0203052 2.0203052 0 1 1  331.33003 82.615738 z"
       sodipodi:ry="2.0203052"
       sodipodi:rx="2.0203052"
       sodipodi:cy="82.615738"
       sodipodi:cx="329.30972"
       id="path4198"
       style="fill:#7f7f7f;fill-opacity:1;stroke:none;stroke-width:2;stroke-miterlimit:4;stroke-dasharray:none;stroke-dashoffset:0;stroke-opacity:1"
       sodipodi:type="arc" />
    <path
       transform="matrix(3.0897095,0,0,3.0897095,-773.8373,-146.78536)"
       d="M 331.33003 82.615738 A 2.0203052 2.0203052 0 1 1  327.28942,82.615738 A 2.0203052 2.0203052 0 1 1  331.33003 82.615738 z"
       sodipodi:ry="2.0203052"
       sodipodi:rx="2.0203052"
       sodipodi:cy="82.615738"
       sodipodi:cx="329.30972"
       id="path4200"
       style="fill:#7f7f7f;fill-opacity:1;stroke:none;stroke-width:2;stroke-miterlimit:4;stroke-dasharray:none;stroke-dashoffset:0;stroke-opacity:1"
       sodipodi:type="arc" />
  </g>
</svg>
