<?xml version="1.0" standalone="yes"?>
<!-- SVG graphic -->
<svg xmlns='http://www.w3.org/2000/svg'
width="100px" height="100px" version="1.1">
<circle cx="-0.212953" cy="84.7542" r="1.4" fill="red"/>
<circle cx="0" cy="49.8253" r="1.4" fill="green"/>
<circle cx="0" cy="50.0206" r="1.4" fill="green"/>
<circle cx="0" cy="50.6489" r="1.4" fill="red"/>
<circle cx="0.745094" cy="99.3035" r="1.4" fill="red"/>
<circle cx="1" cy="49.9354" r="1.4" fill="green"/>
<circle cx="1" cy="50.3502" r="1.4" fill="green"/>
<circle cx="1.04293" cy="78.709" r="1.4" fill="red"/>
<circle cx="1.91846" cy="61.8813" r="1.4" fill="red"/>
<circle cx="2" cy="50.1896" r="1.4" fill="green"/>
<circle cx="2" cy="50.6647" r="1.4" fill="green"/>
<circle cx="2" cy="50.6697" r="1.4" fill="green"/>
<circle cx="2.0791" cy="97.8528" r="1.4" fill="red"/>
<circle cx="3" cy="50.3951" r="1.4" fill="green"/>
<circle cx="3.88017" cy="50.0028" r="1.4" fill="red"/>
<circle cx="4" cy="50.9076" r="1.4" fill="green"/>
<circle cx="4" cy="51.1129" r="1.4" fill="green"/>
<circle cx="4" cy="51.1972" r="1.4" fill="green"/>
<circle cx="4" cy="51.2723" r="1.4" fill="green"/>
<circle cx="4" cy="51.3065" r="1.4" fill="green"/>
<circle cx="5" cy="50.9864" r="1.4" fill="green"/>
<circle cx="5" cy="51.8947" r="1.4" fill="green"/>
<circle cx="5.94444" cy="95.0884" r="1.4" fill="red"/>
<circle cx="6" cy="51.2144" r="1.4" fill="green"/>
<circle cx="6" cy="51.378" r="1.4" fill="green"/>
<circle cx="6" cy="51.4153" r="1.4" fill="green"/>
<circle cx="6" cy="51.436" r="1.4" fill="green"/>
<circle cx="6" cy="51.8878" r="1.4" fill="green"/>
<circle cx="6" cy="52.1834" r="1.4" fill="green"/>
<circle cx="6.04484" cy="38.831" r="1.4" fill="red"/>
<circle cx="6.91678" cy="66.8673" r="1.4" fill="red"/>
<circle cx="7" cy="52.2367" r="1.4" fill="green"/>
<circle cx="8" cy="52.2458" r="1.4" fill="green"/>
<circle cx="8" cy="52.8307" r="1.4" fill="green"/>
<circle cx="8.20182" cy="29.1386" r="1.4" fill="red"/>
<circle cx="9" cy="52.7253" r="1.4" fill="green"/>
<circle cx="9" cy="52.9737" r="1.4" fill="green"/>
<circle cx="9" cy="53.0826" r="1.4" fill="green"/>
<circle cx="10" cy="52.7285" r="1.4" fill="green"/>
<circle cx="10" cy="52.9305" r="1.4" fill="green"/>
<circle cx="10" cy="53.432" r="1.4" fill="green"/>
<circle cx="11" cy="52.4013" r="1.4" fill="red"/>
<circle cx="11" cy="53.1777" r="1.4" fill="green"/>
<circle cx="11" cy="53.5893" r="1.4" fill="green"/>
<circle cx="11" cy="53.6132" r="1.4" fill="green"/>
<circle cx="12" cy="53.5182" r="1.4" fill="green"/>
<circle cx="12.9563" cy="54.9449" r="1.4" fill="red"/>
<circle cx="13" cy="53.4648" r="1.4" fill="green"/>
<circle cx="13" cy="54.0626" r="1.4" fill="green"/>
<circle cx="14" cy="54.0703" r="1.4" fill="green"/>
<circle cx="14" cy="54.3295" r="1.4" fill="green"/>
<circle cx="15" cy="54.5266" r="1.4" fill="green"/>
<circle cx="15" cy="54.8684" r="1.4" fill="green"/>
<circle cx="16" cy="53.877" r="1.4" fill="red"/>
<circle cx="16" cy="54.9188" r="1.4" fill="green"/>
<circle cx="16.0498" cy="40.02" r="1.4" fill="red"/>
<circle cx="17" cy="55.1876" r="1.4" fill="green"/>
<circle cx="17" cy="55.2335" r="1.4" fill="green"/>
<circle cx="17" cy="55.5422" r="1.4" fill="green"/>
<circle cx="17.8902" cy="25.3734" r="1.4" fill="red"/>
<circle cx="18" cy="55.4662" r="1.4" fill="green"/>
<circle cx="18" cy="55.5263" r="1.4" fill="green"/>
<circle cx="18" cy="55.7855" r="1.4" fill="green"/>
<circle cx="18.0479" cy="46.9782" r="1.4" fill="red"/>
<circle cx="19" cy="55.5632" r="1.4" fill="green"/>
<circle cx="20" cy="55.3531" r="1.4" fill="green"/>
<circle cx="21" cy="55.7669" r="1.4" fill="green"/>
<circle cx="21" cy="56.0593" r="1.4" fill="green"/>
<circle cx="21" cy="56.4695" r="1.4" fill="green"/>
<circle cx="21" cy="56.5009" r="1.4" fill="green"/>
<circle cx="21.2154" cy="36.0008" r="1.4" fill="red"/>
<circle cx="22.8386" cy="86.186" r="1.4" fill="red"/>
<circle cx="23" cy="56.6656" r="1.4" fill="green"/>
<circle cx="23" cy="57.3047" r="1.4" fill="green"/>
<circle cx="24" cy="57.6593" r="1.4" fill="green"/>
<circle cx="24.1212" cy="8.92238" r="1.4" fill="red"/>
<circle cx="25" cy="57.2708" r="1.4" fill="green"/>
<circle cx="25" cy="57.4763" r="1.4" fill="green"/>
<circle cx="27" cy="58.1686" r="1.4" fill="green"/>
<circle cx="27" cy="58.3226" r="1.4" fill="green"/>
<circle cx="28" cy="58.2849" r="1.4" fill="green"/>
<circle cx="28" cy="58.37" r="1.4" fill="green"/>
<circle cx="28.1046" cy="55.3299" r="1.4" fill="red"/>
<circle cx="29" cy="58.6172" r="1.4" fill="green"/>
<circle cx="29" cy="58.6654" r="1.4" fill="green"/>
<circle cx="29" cy="58.9533" r="1.4" fill="green"/>
<circle cx="30" cy="58.8321" r="1.4" fill="green"/>
<circle cx="30" cy="58.877" r="1.4" fill="green"/>
<circle cx="30" cy="58.9159" r="1.4" fill="green"/>
<circle cx="30" cy="59.2597" r="1.4" fill="green"/>
<circle cx="30" cy="59.4382" r="1.4" fill="green"/>
<circle cx="32" cy="59.5707" r="1.4" fill="green"/>
<circle cx="32" cy="59.6114" r="1.4" fill="green"/>
<circle cx="32.0092" cy="40.9749" r="1.4" fill="red"/>
<circle cx="32.3577" cy="37.1583" r="1.4" fill="red"/>
<circle cx="32.891" cy="53.05" r="1.4" fill="red"/>
<circle cx="33" cy="59.4612" r="1.4" fill="green"/>
<circle cx="33" cy="59.5954" r="1.4" fill="green"/>
<circle cx="34" cy="59.5572" r="1.4" fill="red"/>
<circle cx="34" cy="59.9619" r="1.4" fill="green"/>
<circle cx="34.7528" cy="20.4638" r="1.4" fill="red"/>
<circle cx="35" cy="60.7178" r="1.4" fill="green"/>
<circle cx="35" cy="60.7427" r="1.4" fill="green"/>
<circle cx="35.983" cy="27.7897" r="1.4" fill="red"/>
<circle cx="37" cy="61.3727" r="1.4" fill="green"/>
<circle cx="37" cy="61.8015" r="1.4" fill="red"/>
<circle cx="37.0237" cy="36.0831" r="1.4" fill="red"/>
<circle cx="37.231" cy="50.3496" r="1.4" fill="red"/>
<circle cx="38" cy="61.4446" r="1.4" fill="green"/>
<circle cx="38" cy="61.8862" r="1.4" fill="green"/>
<circle cx="39" cy="61.9822" r="1.4" fill="green"/>
<circle cx="39" cy="62.1419" r="1.4" fill="green"/>
<circle cx="40" cy="61.5091" r="1.4" fill="green"/>
<circle cx="40" cy="61.901" r="1.4" fill="green"/>
<circle cx="40" cy="62.1478" r="1.4" fill="green"/>
<circle cx="40" cy="62.2142" r="1.4" fill="green"/>
<circle cx="40" cy="62.3142" r="1.4" fill="green"/>
<circle cx="41" cy="62.0402" r="1.4" fill="green"/>
<circle cx="41" cy="62.7192" r="1.4" fill="green"/>
<circle cx="42" cy="62.5648" r="1.4" fill="green"/>
<circle cx="43" cy="62.7872" r="1.4" fill="green"/>
<circle cx="43" cy="63.3609" r="1.4" fill="green"/>
<circle cx="43" cy="63.5368" r="1.4" fill="red"/>
<circle cx="44" cy="63.0897" r="1.4" fill="green"/>
<circle cx="44" cy="63.2843" r="1.4" fill="green"/>
<circle cx="44" cy="63.432" r="1.4" fill="green"/>
<circle cx="44" cy="63.4334" r="1.4" fill="green"/>
<circle cx="45" cy="63.1754" r="1.4" fill="green"/>
<circle cx="45" cy="63.2601" r="1.4" fill="green"/>
<circle cx="46" cy="63.0531" r="1.4" fill="red"/>
<circle cx="46" cy="63.5633" r="1.4" fill="green"/>
<circle cx="46" cy="64.0579" r="1.4" fill="green"/>
<circle cx="47" cy="63.8792" r="1.4" fill="green"/>
<circle cx="48" cy="64.5738" r="1.4" fill="green"/>
<circle cx="48" cy="64.6078" r="1.4" fill="green"/>
<circle cx="48" cy="64.6436" r="1.4" fill="green"/>
<circle cx="48" cy="64.6467" r="1.4" fill="green"/>
<circle cx="48" cy="65.0201" r="1.4" fill="red"/>
<circle cx="49" cy="64.5169" r="1.4" fill="green"/>
<circle cx="49" cy="64.5321" r="1.4" fill="green"/>
<circle cx="49" cy="64.5558" r="1.4" fill="green"/>
<circle cx="49" cy="64.723" r="1.4" fill="green"/>
<circle cx="50" cy="64.8063" r="1.4" fill="green"/>
<circle cx="50" cy="65.07" r="1.4" fill="green"/>
<circle cx="50" cy="65.1792" r="1.4" fill="green"/>
<circle cx="50" cy="65.4558" r="1.4" fill="green"/>
<circle cx="51" cy="65.1022" r="1.4" fill="green"/>
<circle cx="51" cy="65.1151" r="1.4" fill="green"/>
<circle cx="51" cy="65.3099" r="1.4" fill="green"/>
<circle cx="51" cy="65.5089" r="1.4" fill="green"/>
<circle cx="52" cy="65.2434" r="1.4" fill="green"/>
<circle cx="52" cy="65.3511" r="1.4" fill="green"/>
<circle cx="53" cy="65.9858" r="1.4" fill="green"/>
<circle cx="53" cy="66.167" r="1.4" fill="green"/>
<circle cx="53.1378" cy="21.7103" r="1.4" fill="red"/>
<circle cx="54" cy="66.151" r="1.4" fill="green"/>
<circle cx="55" cy="66.2548" r="1.4" fill="green"/>
<circle cx="55" cy="66.4777" r="1.4" fill="green"/>
<circle cx="55" cy="66.7899" r="1.4" fill="green"/>
<circle cx="55.7693" cy="88.2448" r="1.4" fill="red"/>
<circle cx="56" cy="66.2867" r="1.4" fill="green"/>
<circle cx="56" cy="66.332" r="1.4" fill="green"/>
<circle cx="56" cy="66.9819" r="1.4" fill="green"/>
<circle cx="56" cy="67.3388" r="1.4" fill="green"/>
<circle cx="56.9861" cy="64.2601" r="1.4" fill="red"/>
<circle cx="57" cy="67.3728" r="1.4" fill="green"/>
<circle cx="57" cy="67.437" r="1.4" fill="green"/>
<circle cx="57.0013" cy="82.9048" r="1.4" fill="red"/>
<circle cx="58" cy="67.0426" r="1.4" fill="green"/>
<circle cx="58" cy="67.429" r="1.4" fill="green"/>
<circle cx="58" cy="67.4608" r="1.4" fill="green"/>
<circle cx="58.1193" cy="28.775" r="1.4" fill="red"/>
<circle cx="59" cy="67.7908" r="1.4" fill="green"/>
<circle cx="60" cy="67.5855" r="1.4" fill="green"/>
<circle cx="61.0183" cy="55.8565" r="1.4" fill="red"/>
<circle cx="62" cy="68.4766" r="1.4" fill="green"/>
<circle cx="62" cy="68.5275" r="1.4" fill="green"/>
<circle cx="62" cy="68.8567" r="1.4" fill="green"/>
<circle cx="62" cy="68.9319" r="1.4" fill="green"/>
<circle cx="63" cy="69.1026" r="1.4" fill="green"/>
<circle cx="63.7963" cy="23.1137" r="1.4" fill="red"/>
<circle cx="66" cy="69.4451" r="1.4" fill="green"/>
<circle cx="67" cy="69.7441" r="1.4" fill="green"/>
<circle cx="67" cy="69.7589" r="1.4" fill="green"/>
<circle cx="68" cy="70.1878" r="1.4" fill="green"/>
<circle cx="68" cy="70.3889" r="1.4" fill="green"/>
<circle cx="68" cy="70.9249" r="1.4" fill="green"/>
<circle cx="69" cy="70.237" r="1.4" fill="green"/>
<circle cx="69" cy="70.7633" r="1.4" fill="green"/>
<circle cx="69" cy="70.8135" r="1.4" fill="green"/>
<circle cx="69" cy="70.9049" r="1.4" fill="green"/>
<circle cx="70.2488" cy="40.8114" r="1.4" fill="red"/>
<circle cx="70.831" cy="8.46816" r="1.4" fill="red"/>
<circle cx="70.9201" cy="49.0765" r="1.4" fill="red"/>
<circle cx="70.9613" cy="27.3544" r="1.4" fill="red"/>
<circle cx="71" cy="71.4504" r="1.4" fill="green"/>
<circle cx="72" cy="71.5435" r="1.4" fill="green"/>
<circle cx="72" cy="71.5705" r="1.4" fill="green"/>
<circle cx="72" cy="72.0284" r="1.4" fill="green"/>
<circle cx="73" cy="71.404" r="1.4" fill="green"/>
<circle cx="73" cy="71.6967" r="1.4" fill="green"/>
<circle cx="74" cy="71.7022" r="1.4" fill="green"/>
<circle cx="74" cy="71.8801" r="1.4" fill="green"/>
<circle cx="75" cy="72.5681" r="1.4" fill="green"/>
<circle cx="75" cy="72.7069" r="1.4" fill="green"/>
<circle cx="75.3401" cy="99.0387" r="1.4" fill="red"/>
<circle cx="76" cy="72.5209" r="1.4" fill="green"/>
<circle cx="76" cy="72.5958" r="1.4" fill="green"/>
<circle cx="76.9297" cy="97.0275" r="1.4" fill="red"/>
<circle cx="77" cy="72.6833" r="1.4" fill="green"/>
<circle cx="77" cy="72.7848" r="1.4" fill="green"/>
<circle cx="77" cy="73.3453" r="1.4" fill="green"/>
<circle cx="77.2304" cy="46.8217" r="1.4" fill="red"/>
<circle cx="78" cy="73.1218" r="1.4" fill="green"/>
<circle cx="78" cy="73.2895" r="1.4" fill="green"/>
<circle cx="78.1652" cy="57.1538" r="1.4" fill="red"/>
<circle cx="78.7766" cy="86.167" r="1.4" fill="red"/>
<circle cx="79" cy="73.5953" r="1.4" fill="green"/>
<circle cx="79" cy="73.8917" r="1.4" fill="green"/>
<circle cx="79" cy="74.1614" r="1.4" fill="green"/>
<circle cx="79.1488" cy="52.3083" r="1.4" fill="red"/>
<circle cx="79.9961" cy="36.0341" r="1.4" fill="red"/>
<circle cx="80" cy="73.9206" r="1.4" fill="green"/>
<circle cx="80" cy="73.9241" r="1.4" fill="green"/>
<circle cx="80.2189" cy="61.1722" r="1.4" fill="red"/>
<circle cx="80.8352" cy="15.551" r="1.4" fill="red"/>
<circle cx="81" cy="73.8538" r="1.4" fill="green"/>
<circle cx="82" cy="74.1845" r="1.4" fill="green"/>
<circle cx="82" cy="74.4841" r="1.4" fill="green"/>
<circle cx="82" cy="74.9176" r="1.4" fill="green"/>
<circle cx="84" cy="74.9921" r="1.4" fill="green"/>
<circle cx="84" cy="75.3008" r="1.4" fill="green"/>
<circle cx="84" cy="75.3942" r="1.4" fill="green"/>
<circle cx="84.4959" cy="12.3033" r="1.4" fill="red"/>
<circle cx="85" cy="75.2303" r="1.4" fill="green"/>
<circle cx="85" cy="75.5172" r="1.4" fill="green"/>
<circle cx="85" cy="75.7983" r="1.4" fill="green"/>
<circle cx="86" cy="75.679" r="1.4" fill="green"/>
<circle cx="86" cy="75.8347" r="1.4" fill="green"/>
<circle cx="86" cy="75.9345" r="1.4" fill="green"/>
<circle cx="87" cy="76.1332" r="1.4" fill="green"/>
<circle cx="87.1772" cy="39.9545" r="1.4" fill="red"/>
<circle cx="88" cy="76.097" r="1.4" fill="green"/>
<circle cx="88" cy="76.2565" r="1.4" fill="green"/>
<circle cx="88" cy="76.5172" r="1.4" fill="green"/>
<circle cx="88" cy="76.568" r="1.4" fill="green"/>
<circle cx="88" cy="76.6022" r="1.4" fill="green"/>
<circle cx="89" cy="77.341" r="1.4" fill="green"/>
<circle cx="90" cy="76.928" r="1.4" fill="green"/>
<circle cx="90" cy="77.0272" r="1.4" fill="green"/>
<circle cx="90" cy="77.0346" r="1.4" fill="green"/>
<circle cx="90.0874" cy="29.8187" r="1.4" fill="red"/>
<circle cx="90.7653" cy="55.3985" r="1.4" fill="red"/>
<circle cx="91.9608" cy="83.9871" r="1.4" fill="red"/>
<circle cx="92.8958" cy="53.0921" r="1.4" fill="red"/>
<circle cx="93" cy="77.2712" r="1.4" fill="red"/>
<circle cx="93" cy="77.6288" r="1.4" fill="green"/>
<circle cx="93" cy="77.7705" r="1.4" fill="green"/>
<circle cx="93" cy="77.8046" r="1.4" fill="green"/>
<circle cx="93" cy="77.8755" r="1.4" fill="green"/>
<circle cx="93" cy="77.9255" r="1.4" fill="green"/>
<circle cx="93" cy="77.9939" r="1.4" fill="green"/>
<circle cx="93" cy="78.0288" r="1.4" fill="green"/>
<circle cx="94" cy="78.0052" r="1.4" fill="green"/>
<circle cx="94" cy="78.5505" r="1.4" fill="green"/>
<circle cx="94.5388" cy="27.5772" r="1.4" fill="red"/>
<circle cx="95" cy="78.6144" r="1.4" fill="green"/>
<circle cx="95" cy="78.8856" r="1.4" fill="green"/>
<circle cx="95.9507" cy="57.9104" r="1.4" fill="red"/>
<circle cx="96" cy="79.1893" r="1.4" fill="green"/>
<circle cx="96.1134" cy="11.8641" r="1.4" fill="red"/>
<circle cx="96.9601" cy="31.2004" r="1.4" fill="red"/>
<circle cx="97" cy="78.7687" r="1.4" fill="green"/>
<circle cx="97" cy="78.9313" r="1.4" fill="green"/>
<circle cx="97" cy="78.9458" r="1.4" fill="green"/>
<circle cx="97.8751" cy="90.2028" r="1.4" fill="red"/>
<circle cx="98" cy="79.4249" r="1.4" fill="green"/>
<circle cx="98" cy="80.0036" r="1.4" fill="green"/>
<circle cx="99" cy="79.4071" r="1.4" fill="green"/>
<circle cx="99" cy="79.5586" r="1.4" fill="green"/>
<circle cx="99" cy="79.6058" r="1.4" fill="green"/>
<circle cx="99" cy="80.1157" r="1.4" fill="green"/>
<polyline points="0,49.8467,100,80.1285" stroke="blue" stroke-width="1"/>
</svg>