<?xml version="1.0" standalone="yes"?>
<!-- SVG graphic -->
<svg xmlns='http://www.w3.org/2000/svg'
width="100px" height="100px" version="1.1">
<circle cx="1" cy="49.2536" r="1.4" fill="green"/>
<circle cx="1" cy="50.6916" r="1.4" fill="green"/>
<circle cx="1" cy="52.9008" r="1.4" fill="green"/>
<circle cx="2.87784" cy="72.6886" r="1.4" fill="red"/>
<circle cx="2.96359" cy="70.9914" r="1.4" fill="red"/>
<circle cx="4" cy="51.6096" r="1.4" fill="green"/>
<circle cx="4" cy="52.3953" r="1.4" fill="green"/>
<circle cx="4" cy="52.8553" r="1.4" fill="green"/>
<circle cx="5" cy="50.6512" r="1.4" fill="green"/>
<circle cx="5" cy="51.3746" r="1.4" fill="green"/>
<circle cx="5.00527" cy="33.1503" r="1.4" fill="red"/>
<circle cx="6" cy="51.6767" r="1.4" fill="green"/>
<circle cx="6" cy="52.3042" r="1.4" fill="green"/>
<circle cx="6" cy="52.7893" r="1.4" fill="green"/>
<circle cx="6" cy="55.2857" r="1.4" fill="green"/>
<circle cx="6.89425" cy="43.6588" r="1.4" fill="red"/>
<circle cx="7" cy="50.2673" r="1.4" fill="green"/>
<circle cx="7" cy="50.9693" r="1.4" fill="green"/>
<circle cx="7" cy="51.2498" r="1.4" fill="green"/>
<circle cx="8" cy="50.6951" r="1.4" fill="green"/>
<circle cx="8" cy="50.814" r="1.4" fill="green"/>
<circle cx="8" cy="50.8511" r="1.4" fill="green"/>
<circle cx="8" cy="52.6326" r="1.4" fill="green"/>
<circle cx="8" cy="52.6883" r="1.4" fill="green"/>
<circle cx="8" cy="53.1636" r="1.4" fill="green"/>
<circle cx="8" cy="53.3788" r="1.4" fill="green"/>
<circle cx="8" cy="55.4323" r="1.4" fill="green"/>
<circle cx="9" cy="51.426" r="1.4" fill="green"/>
<circle cx="9.29377" cy="89.1487" r="1.4" fill="red"/>
<circle cx="10" cy="50.4556" r="1.4" fill="green"/>
<circle cx="10" cy="50.5253" r="1.4" fill="green"/>
<circle cx="10" cy="54.2397" r="1.4" fill="green"/>
<circle cx="10.93" cy="89.6697" r="1.4" fill="red"/>
<circle cx="11" cy="52.0176" r="1.4" fill="green"/>
<circle cx="11" cy="52.9637" r="1.4" fill="green"/>
<circle cx="11" cy="55.0175" r="1.4" fill="green"/>
<circle cx="12" cy="53.9396" r="1.4" fill="green"/>
<circle cx="12" cy="54.0503" r="1.4" fill="green"/>
<circle cx="12" cy="54.1432" r="1.4" fill="green"/>
<circle cx="12" cy="56.9735" r="1.4" fill="green"/>
<circle cx="13" cy="55.5762" r="1.4" fill="green"/>
<circle cx="14.8584" cy="36.9762" r="1.4" fill="red"/>
<circle cx="14.9952" cy="38.1718" r="1.4" fill="red"/>
<circle cx="15" cy="52.6465" r="1.4" fill="green"/>
<circle cx="15" cy="55.3705" r="1.4" fill="green"/>
<circle cx="15.9962" cy="34.4435" r="1.4" fill="red"/>
<circle cx="16" cy="52.8422" r="1.4" fill="green"/>
<circle cx="16" cy="53.7742" r="1.4" fill="green"/>
<circle cx="16" cy="56.2307" r="1.4" fill="green"/>
<circle cx="16" cy="56.4193" r="1.4" fill="green"/>
<circle cx="17" cy="53.7027" r="1.4" fill="green"/>
<circle cx="17" cy="54.9974" r="1.4" fill="green"/>
<circle cx="17" cy="56.0498" r="1.4" fill="green"/>
<circle cx="17.0151" cy="51.1429" r="1.4" fill="red"/>
<circle cx="17.8991" cy="89.0993" r="1.4" fill="red"/>
<circle cx="18" cy="54.8465" r="1.4" fill="green"/>
<circle cx="18" cy="56.9847" r="1.4" fill="green"/>
<circle cx="19" cy="53.4063" r="1.4" fill="green"/>
<circle cx="19" cy="54.3804" r="1.4" fill="green"/>
<circle cx="19" cy="55.1387" r="1.4" fill="green"/>
<circle cx="19" cy="55.6253" r="1.4" fill="green"/>
<circle cx="19.5774" cy="54.7722" r="1.4" fill="green"/>
<circle cx="20" cy="55.7259" r="1.4" fill="green"/>
<circle cx="20" cy="57.4565" r="1.4" fill="green"/>
<circle cx="20" cy="57.607" r="1.4" fill="green"/>
<circle cx="20" cy="59.2907" r="1.4" fill="green"/>
<circle cx="21" cy="58.1343" r="1.4" fill="green"/>
<circle cx="21.0311" cy="89.9738" r="1.4" fill="red"/>
<circle cx="23" cy="55.6047" r="1.4" fill="green"/>
<circle cx="23" cy="57.2987" r="1.4" fill="green"/>
<circle cx="24" cy="54.5895" r="1.4" fill="green"/>
<circle cx="24" cy="55.7946" r="1.4" fill="green"/>
<circle cx="24" cy="58.9715" r="1.4" fill="green"/>
<circle cx="24.0697" cy="41.0569" r="1.4" fill="red"/>
<circle cx="25" cy="56.344" r="1.4" fill="green"/>
<circle cx="25" cy="58.4508" r="1.4" fill="green"/>
<circle cx="25" cy="59.2511" r="1.4" fill="green"/>
<circle cx="26" cy="60.5134" r="1.4" fill="green"/>
<circle cx="26.7303" cy="26.133" r="1.4" fill="red"/>
<circle cx="27" cy="59.078" r="1.4" fill="green"/>
<circle cx="28" cy="59.7951" r="1.4" fill="green"/>
<circle cx="29" cy="56.7264" r="1.4" fill="green"/>
<circle cx="29" cy="57.0469" r="1.4" fill="green"/>
<circle cx="29.6956" cy="37.2159" r="1.4" fill="red"/>
<circle cx="32" cy="58.6506" r="1.4" fill="green"/>
<circle cx="32" cy="60.0611" r="1.4" fill="green"/>
<circle cx="32" cy="61.0414" r="1.4" fill="green"/>
<circle cx="32.0808" cy="13.0057" r="1.4" fill="red"/>
<circle cx="33" cy="62.5056" r="1.4" fill="green"/>
<circle cx="34" cy="59.3338" r="1.4" fill="green"/>
<circle cx="35" cy="59.9014" r="1.4" fill="green"/>
<circle cx="35" cy="62.0445" r="1.4" fill="green"/>
<circle cx="35" cy="62.1929" r="1.4" fill="green"/>
<circle cx="35" cy="62.9461" r="1.4" fill="green"/>
<circle cx="36" cy="60.5568" r="1.4" fill="green"/>
<circle cx="37" cy="62.6105" r="1.4" fill="green"/>
<circle cx="38" cy="63.6086" r="1.4" fill="green"/>
<circle cx="38.1835" cy="82.8689" r="1.4" fill="red"/>
<circle cx="39" cy="60.6796" r="1.4" fill="green"/>
<circle cx="39" cy="62.6594" r="1.4" fill="green"/>
<circle cx="40" cy="61.1027" r="1.4" fill="green"/>
<circle cx="40" cy="61.1076" r="1.4" fill="green"/>
<circle cx="40" cy="62.6168" r="1.4" fill="green"/>
<circle cx="40.0857" cy="15.5817" r="1.4" fill="red"/>
<circle cx="40.1959" cy="75.0742" r="1.4" fill="red"/>
<circle cx="41" cy="60.8742" r="1.4" fill="green"/>
<circle cx="42" cy="62.3959" r="1.4" fill="green"/>
<circle cx="43" cy="62.1303" r="1.4" fill="green"/>
<circle cx="43.2297" cy="80.974" r="1.4" fill="red"/>
<circle cx="44" cy="60.7878" r="1.4" fill="green"/>
<circle cx="44" cy="62.4049" r="1.4" fill="green"/>
<circle cx="44" cy="63.9724" r="1.4" fill="green"/>
<circle cx="44" cy="64.5766" r="1.4" fill="green"/>
<circle cx="44" cy="67.9749" r="1.4" fill="red"/>
<circle cx="44.9308" cy="66.7924" r="1.4" fill="green"/>
<circle cx="45" cy="62.7887" r="1.4" fill="green"/>
<circle cx="45" cy="63.6025" r="1.4" fill="green"/>
<circle cx="45" cy="64.3576" r="1.4" fill="green"/>
<circle cx="45" cy="64.7387" r="1.4" fill="green"/>
<circle cx="45.1264" cy="42.7719" r="1.4" fill="red"/>
<circle cx="46" cy="62.4598" r="1.4" fill="green"/>
<circle cx="46" cy="65.1996" r="1.4" fill="green"/>
<circle cx="46.4263" cy="46.959" r="1.4" fill="red"/>
<circle cx="47" cy="63.9071" r="1.4" fill="green"/>
<circle cx="47" cy="64.1329" r="1.4" fill="green"/>
<circle cx="47" cy="66.0238" r="1.4" fill="green"/>
<circle cx="47" cy="66.4254" r="1.4" fill="green"/>
<circle cx="47.0387" cy="6.1668" r="1.4" fill="red"/>
<circle cx="47.9301" cy="97.0792" r="1.4" fill="red"/>
<circle cx="48" cy="62.8642" r="1.4" fill="green"/>
<circle cx="48" cy="63.1308" r="1.4" fill="green"/>
<circle cx="48" cy="63.213" r="1.4" fill="green"/>
<circle cx="49" cy="65.69" r="1.4" fill="green"/>
<circle cx="49" cy="67.978" r="1.4" fill="green"/>
<circle cx="49" cy="68.9988" r="1.4" fill="red"/>
<circle cx="50" cy="63.8684" r="1.4" fill="green"/>
<circle cx="50" cy="66.4954" r="1.4" fill="green"/>
<circle cx="50.887" cy="27.6148" r="1.4" fill="red"/>
<circle cx="51" cy="60.3904" r="1.4" fill="red"/>
<circle cx="51" cy="63.4345" r="1.4" fill="green"/>
<circle cx="51" cy="65.6788" r="1.4" fill="green"/>
<circle cx="51" cy="69.0282" r="1.4" fill="red"/>
<circle cx="52" cy="68.1544" r="1.4" fill="green"/>
<circle cx="52" cy="68.3091" r="1.4" fill="green"/>
<circle cx="52" cy="69.1587" r="1.4" fill="green"/>
<circle cx="52.8653" cy="97.1116" r="1.4" fill="red"/>
<circle cx="53" cy="63.2102" r="1.4" fill="green"/>
<circle cx="53" cy="63.537" r="1.4" fill="green"/>
<circle cx="53" cy="64.8769" r="1.4" fill="green"/>
<circle cx="53" cy="67.5697" r="1.4" fill="green"/>
<circle cx="53.8911" cy="85.9683" r="1.4" fill="red"/>
<circle cx="54" cy="64.3726" r="1.4" fill="green"/>
<circle cx="54" cy="65.0217" r="1.4" fill="green"/>
<circle cx="54" cy="68.1718" r="1.4" fill="green"/>
<circle cx="54" cy="68.9939" r="1.4" fill="green"/>
<circle cx="54.7043" cy="91.7084" r="1.4" fill="red"/>
<circle cx="55" cy="62.6426" r="1.4" fill="red"/>
<circle cx="55" cy="64.4881" r="1.4" fill="green"/>
<circle cx="55" cy="68.7173" r="1.4" fill="green"/>
<circle cx="56" cy="65.3" r="1.4" fill="green"/>
<circle cx="56" cy="67.1056" r="1.4" fill="green"/>
<circle cx="56" cy="67.2756" r="1.4" fill="green"/>
<circle cx="56" cy="67.9579" r="1.4" fill="green"/>
<circle cx="57" cy="64.0739" r="1.4" fill="red"/>
<circle cx="57" cy="68.7645" r="1.4" fill="green"/>
<circle cx="57" cy="69.102" r="1.4" fill="green"/>
<circle cx="57" cy="71.9375" r="1.4" fill="red"/>
<circle cx="57.719" cy="85.9142" r="1.4" fill="red"/>
<circle cx="58" cy="67.3753" r="1.4" fill="green"/>
<circle cx="58" cy="69.1507" r="1.4" fill="green"/>
<circle cx="58" cy="70.0165" r="1.4" fill="green"/>
<circle cx="59" cy="69.76" r="1.4" fill="green"/>
<circle cx="60" cy="67.2803" r="1.4" fill="green"/>
<circle cx="60" cy="69.6089" r="1.4" fill="green"/>
<circle cx="61" cy="66.1989" r="1.4" fill="green"/>
<circle cx="61" cy="67.5479" r="1.4" fill="green"/>
<circle cx="61.012" cy="29.8864" r="1.4" fill="red"/>
<circle cx="61.9314" cy="49.8139" r="1.4" fill="red"/>
<circle cx="62" cy="67.7318" r="1.4" fill="green"/>
<circle cx="62" cy="67.8718" r="1.4" fill="green"/>
<circle cx="62" cy="69.1969" r="1.4" fill="green"/>
<circle cx="62" cy="69.7884" r="1.4" fill="green"/>
<circle cx="62.8359" cy="63.1364" r="1.4" fill="red"/>
<circle cx="62.8919" cy="4.01704" r="1.4" fill="red"/>
<circle cx="63" cy="69.2432" r="1.4" fill="green"/>
<circle cx="63" cy="71.0328" r="1.4" fill="green"/>
<circle cx="63" cy="71.6333" r="1.4" fill="green"/>
<circle cx="63.9408" cy="55.1421" r="1.4" fill="red"/>
<circle cx="64" cy="69.16" r="1.4" fill="green"/>
<circle cx="65" cy="68.0592" r="1.4" fill="green"/>
<circle cx="65" cy="69.1713" r="1.4" fill="green"/>
<circle cx="65" cy="71.4039" r="1.4" fill="green"/>
<circle cx="66" cy="68.8066" r="1.4" fill="green"/>
<circle cx="66" cy="69.0398" r="1.4" fill="green"/>
<circle cx="66" cy="69.9474" r="1.4" fill="green"/>
<circle cx="66" cy="70.8945" r="1.4" fill="green"/>
<circle cx="66" cy="71.6192" r="1.4" fill="green"/>
<circle cx="67" cy="69.8699" r="1.4" fill="green"/>
<circle cx="67" cy="69.8893" r="1.4" fill="green"/>
<circle cx="67.0204" cy="56.7094" r="1.4" fill="red"/>
<circle cx="68" cy="70.3609" r="1.4" fill="green"/>
<circle cx="69" cy="68.848" r="1.4" fill="green"/>
<circle cx="69" cy="71.574" r="1.4" fill="green"/>
<circle cx="69" cy="72.7804" r="1.4" fill="green"/>
<circle cx="69.9736" cy="73.1343" r="1.4" fill="green"/>
<circle cx="70" cy="69.3307" r="1.4" fill="green"/>
<circle cx="70" cy="74.2936" r="1.4" fill="green"/>
<circle cx="72" cy="68.2861" r="1.4" fill="red"/>
<circle cx="72" cy="70.7457" r="1.4" fill="green"/>
<circle cx="72" cy="72.185" r="1.4" fill="green"/>
<circle cx="72.8416" cy="56.1031" r="1.4" fill="red"/>
<circle cx="73" cy="70.2832" r="1.4" fill="green"/>
<circle cx="74" cy="75.4221" r="1.4" fill="green"/>
<circle cx="74.0243" cy="0.908396" r="1.4" fill="red"/>
<circle cx="75" cy="72.8952" r="1.4" fill="green"/>
<circle cx="75" cy="73.4622" r="1.4" fill="green"/>
<circle cx="76" cy="70.9039" r="1.4" fill="green"/>
<circle cx="76" cy="72.0127" r="1.4" fill="green"/>
<circle cx="76" cy="74.9164" r="1.4" fill="green"/>
<circle cx="76.1452" cy="19.1832" r="1.4" fill="red"/>
<circle cx="77" cy="70.4593" r="1.4" fill="green"/>
<circle cx="77" cy="71.277" r="1.4" fill="green"/>
<circle cx="77.0187" cy="79.9947" r="1.4" fill="red"/>
<circle cx="78" cy="73.1175" r="1.4" fill="green"/>
<circle cx="79" cy="76.5664" r="1.4" fill="green"/>
<circle cx="80" cy="74.681" r="1.4" fill="green"/>
<circle cx="81.0616" cy="14.955" r="1.4" fill="red"/>
<circle cx="82" cy="73.7637" r="1.4" fill="green"/>
<circle cx="82" cy="75.3354" r="1.4" fill="green"/>
<circle cx="82" cy="77.4801" r="1.4" fill="green"/>
<circle cx="82.7676" cy="29.1298" r="1.4" fill="red"/>
<circle cx="83" cy="72.7353" r="1.4" fill="green"/>
<circle cx="83" cy="75.6034" r="1.4" fill="green"/>
<circle cx="83.8949" cy="29.034" r="1.4" fill="red"/>
<circle cx="83.9774" cy="10.9876" r="1.4" fill="red"/>
<circle cx="84" cy="76.5542" r="1.4" fill="green"/>
<circle cx="84" cy="76.9764" r="1.4" fill="green"/>
<circle cx="84.8293" cy="69.0908" r="1.4" fill="red"/>
<circle cx="85" cy="72.8951" r="1.4" fill="green"/>
<circle cx="86" cy="76.7985" r="1.4" fill="green"/>
<circle cx="87" cy="75.1652" r="1.4" fill="green"/>
<circle cx="88" cy="75.3343" r="1.4" fill="green"/>
<circle cx="88" cy="75.4141" r="1.4" fill="green"/>
<circle cx="88" cy="76.91" r="1.4" fill="green"/>
<circle cx="88" cy="78.0495" r="1.4" fill="green"/>
<circle cx="89" cy="72.8467" r="1.4" fill="red"/>
<circle cx="89" cy="75.8668" r="1.4" fill="green"/>
<circle cx="89" cy="75.9504" r="1.4" fill="green"/>
<circle cx="90" cy="77.4961" r="1.4" fill="green"/>
<circle cx="90" cy="77.9242" r="1.4" fill="green"/>
<circle cx="92" cy="77.4348" r="1.4" fill="green"/>
<circle cx="92" cy="78.5511" r="1.4" fill="green"/>
<circle cx="92" cy="82.0842" r="1.4" fill="red"/>
<circle cx="93" cy="75.5738" r="1.4" fill="green"/>
<circle cx="93" cy="77.1652" r="1.4" fill="green"/>
<circle cx="93" cy="77.8108" r="1.4" fill="green"/>
<circle cx="93" cy="79.5951" r="1.4" fill="green"/>
<circle cx="93" cy="79.9598" r="1.4" fill="green"/>
<circle cx="93" cy="79.9646" r="1.4" fill="green"/>
<circle cx="93" cy="81.3867" r="1.4" fill="green"/>
<circle cx="93.8687" cy="72.9402" r="1.4" fill="red"/>
<circle cx="94.0223" cy="64.1344" r="1.4" fill="red"/>
<circle cx="94.2927" cy="38.8725" r="1.4" fill="red"/>
<circle cx="94.7797" cy="16.9488" r="1.4" fill="red"/>
<circle cx="94.7937" cy="36.0232" r="1.4" fill="red"/>
<circle cx="95" cy="76.2613" r="1.4" fill="green"/>
<circle cx="95" cy="77.928" r="1.4" fill="green"/>
<circle cx="95" cy="77.9835" r="1.4" fill="green"/>
<circle cx="95" cy="80.6008" r="1.4" fill="green"/>
<circle cx="95.0644" cy="75.6093" r="1.4" fill="red"/>
<circle cx="95.2947" cy="70.8929" r="1.4" fill="red"/>
<circle cx="96" cy="80.3179" r="1.4" fill="green"/>
<circle cx="97" cy="81.0887" r="1.4" fill="green"/>
<circle cx="97" cy="81.1" r="1.4" fill="green"/>
<circle cx="97.2171" cy="12.0295" r="1.4" fill="red"/>
<circle cx="97.2326" cy="74.1823" r="1.4" fill="red"/>
<circle cx="98" cy="77.205" r="1.4" fill="green"/>
<circle cx="98" cy="78.2117" r="1.4" fill="green"/>
<circle cx="98" cy="79.9577" r="1.4" fill="green"/>
<circle cx="99" cy="76.655" r="1.4" fill="red"/>
<circle cx="99" cy="78.7536" r="1.4" fill="green"/>
<circle cx="99" cy="79.0073" r="1.4" fill="green"/>
<polyline points="0,50.3905,100,80.5079" stroke="blue" stroke-width="1"/>
</svg>