<?xml version="1.0" standalone="yes"?>
<!-- SVG graphic -->
<svg xmlns='http://www.w3.org/2000/svg'
width="100px" height="100px" version="1.1">
<circle cx="0" cy="45.2745" r="1.4" fill="green"/>
<circle cx="0" cy="55.4644" r="1.4" fill="green"/>
<circle cx="1" cy="48.389" r="1.4" fill="green"/>
<circle cx="1.66522" cy="6.08488" r="1.4" fill="red"/>
<circle cx="2" cy="50.4479" r="1.4" fill="green"/>
<circle cx="2" cy="52.3412" r="1.4" fill="green"/>
<circle cx="2.48868" cy="60.1933" r="1.4" fill="red"/>
<circle cx="3" cy="46.6706" r="1.4" fill="green"/>
<circle cx="4" cy="49.7057" r="1.4" fill="green"/>
<circle cx="4" cy="51.9622" r="1.4" fill="green"/>
<circle cx="4" cy="52.2382" r="1.4" fill="green"/>
<circle cx="4" cy="53.2079" r="1.4" fill="green"/>
<circle cx="4" cy="54.6538" r="1.4" fill="green"/>
<circle cx="4.08794" cy="27.1388" r="1.4" fill="red"/>
<circle cx="6" cy="53.3955" r="1.4" fill="green"/>
<circle cx="7" cy="53.6655" r="1.4" fill="green"/>
<circle cx="7" cy="57.8347" r="1.4" fill="green"/>
<circle cx="7.13583" cy="2.20171" r="1.4" fill="red"/>
<circle cx="9.16836" cy="60.9574" r="1.4" fill="red"/>
<circle cx="10" cy="47.4722" r="1.4" fill="green"/>
<circle cx="10" cy="52.8062" r="1.4" fill="green"/>
<circle cx="10" cy="53.1679" r="1.4" fill="green"/>
<circle cx="10.7791" cy="23.1515" r="1.4" fill="red"/>
<circle cx="11" cy="52.2077" r="1.4" fill="green"/>
<circle cx="11" cy="53.6477" r="1.4" fill="green"/>
<circle cx="11" cy="57.5541" r="1.4" fill="green"/>
<circle cx="11.2669" cy="25.7244" r="1.4" fill="red"/>
<circle cx="11.8556" cy="57.0196" r="1.4" fill="green"/>
<circle cx="13" cy="49.5213" r="1.4" fill="green"/>
<circle cx="13" cy="52.1233" r="1.4" fill="green"/>
<circle cx="13" cy="52.4949" r="1.4" fill="green"/>
<circle cx="13" cy="53.8856" r="1.4" fill="green"/>
<circle cx="13" cy="56.2822" r="1.4" fill="green"/>
<circle cx="14" cy="48.4559" r="1.4" fill="green"/>
<circle cx="14" cy="53.1877" r="1.4" fill="green"/>
<circle cx="14.9838" cy="76.0197" r="1.4" fill="red"/>
<circle cx="15" cy="51.3731" r="1.4" fill="green"/>
<circle cx="15" cy="56.3887" r="1.4" fill="green"/>
<circle cx="15" cy="57.1804" r="1.4" fill="green"/>
<circle cx="16" cy="51.2977" r="1.4" fill="green"/>
<circle cx="17" cy="54.2403" r="1.4" fill="green"/>
<circle cx="17" cy="55.8826" r="1.4" fill="green"/>
<circle cx="17" cy="59.8592" r="1.4" fill="green"/>
<circle cx="18" cy="49.1569" r="1.4" fill="green"/>
<circle cx="18" cy="60.4509" r="1.4" fill="green"/>
<circle cx="19" cy="55.6152" r="1.4" fill="green"/>
<circle cx="19" cy="55.7385" r="1.4" fill="green"/>
<circle cx="19" cy="56.6212" r="1.4" fill="green"/>
<circle cx="19" cy="60.4633" r="1.4" fill="green"/>
<circle cx="19.0253" cy="23.2246" r="1.4" fill="red"/>
<circle cx="19.2973" cy="19.0717" r="1.4" fill="red"/>
<circle cx="20" cy="54.2813" r="1.4" fill="green"/>
<circle cx="20" cy="55.5498" r="1.4" fill="green"/>
<circle cx="20.0792" cy="34.2541" r="1.4" fill="red"/>
<circle cx="20.8664" cy="46.6949" r="1.4" fill="red"/>
<circle cx="21.6972" cy="61.9755" r="1.4" fill="green"/>
<circle cx="22" cy="55.6181" r="1.4" fill="green"/>
<circle cx="22" cy="59.1553" r="1.4" fill="green"/>
<circle cx="22" cy="64.4285" r="1.4" fill="red"/>
<circle cx="23" cy="57.25" r="1.4" fill="green"/>
<circle cx="23" cy="58.5119" r="1.4" fill="green"/>
<circle cx="23.9424" cy="48.159" r="1.4" fill="red"/>
<circle cx="24" cy="56.5459" r="1.4" fill="green"/>
<circle cx="24" cy="56.7577" r="1.4" fill="green"/>
<circle cx="24" cy="57.0222" r="1.4" fill="green"/>
<circle cx="26" cy="53.845" r="1.4" fill="green"/>
<circle cx="26" cy="54.7622" r="1.4" fill="green"/>
<circle cx="26" cy="57.029" r="1.4" fill="green"/>
<circle cx="26" cy="58.3435" r="1.4" fill="green"/>
<circle cx="26" cy="59.5012" r="1.4" fill="green"/>
<circle cx="27" cy="57.9196" r="1.4" fill="green"/>
<circle cx="27" cy="58.888" r="1.4" fill="green"/>
<circle cx="27" cy="62.3269" r="1.4" fill="green"/>
<circle cx="28.7239" cy="0.00145168" r="1.4" fill="red"/>
<circle cx="29" cy="58.057" r="1.4" fill="green"/>
<circle cx="29.8439" cy="79.8626" r="1.4" fill="red"/>
<circle cx="30" cy="53.9268" r="1.4" fill="green"/>
<circle cx="30" cy="57.396" r="1.4" fill="green"/>
<circle cx="30" cy="58.4105" r="1.4" fill="green"/>
<circle cx="30.7664" cy="7.27483" r="1.4" fill="red"/>
<circle cx="31" cy="59.2354" r="1.4" fill="green"/>
<circle cx="32" cy="57.7336" r="1.4" fill="green"/>
<circle cx="32" cy="59.6415" r="1.4" fill="green"/>
<circle cx="32" cy="61.9945" r="1.4" fill="green"/>
<circle cx="32.0823" cy="87.1774" r="1.4" fill="red"/>
<circle cx="32.904" cy="41.9098" r="1.4" fill="red"/>
<circle cx="34" cy="57.711" r="1.4" fill="green"/>
<circle cx="36" cy="56.706" r="1.4" fill="green"/>
<circle cx="36" cy="58.8851" r="1.4" fill="green"/>
<circle cx="36" cy="61.104" r="1.4" fill="green"/>
<circle cx="36" cy="63.5035" r="1.4" fill="green"/>
<circle cx="36" cy="64.1769" r="1.4" fill="green"/>
<circle cx="36.0097" cy="71.0036" r="1.4" fill="red"/>
<circle cx="36.8231" cy="84.975" r="1.4" fill="red"/>
<circle cx="36.9036" cy="14.6731" r="1.4" fill="red"/>
<circle cx="37" cy="58.9412" r="1.4" fill="green"/>
<circle cx="37" cy="62.4975" r="1.4" fill="green"/>
<circle cx="37" cy="62.5205" r="1.4" fill="green"/>
<circle cx="38" cy="55.3467" r="1.4" fill="green"/>
<circle cx="38" cy="56.2305" r="1.4" fill="green"/>
<circle cx="38" cy="60.818" r="1.4" fill="green"/>
<circle cx="39" cy="56.749" r="1.4" fill="green"/>
<circle cx="39" cy="67.4317" r="1.4" fill="green"/>
<circle cx="39" cy="67.833" r="1.4" fill="red"/>
<circle cx="40" cy="60.8322" r="1.4" fill="green"/>
<circle cx="40" cy="65.3222" r="1.4" fill="green"/>
<circle cx="40" cy="65.3914" r="1.4" fill="green"/>
<circle cx="41" cy="55.3581" r="1.4" fill="red"/>
<circle cx="41" cy="62.1933" r="1.4" fill="green"/>
<circle cx="41" cy="65.1035" r="1.4" fill="green"/>
<circle cx="41" cy="66.1264" r="1.4" fill="green"/>
<circle cx="41" cy="66.4271" r="1.4" fill="green"/>
<circle cx="41.8685" cy="56.4253" r="1.4" fill="green"/>
<circle cx="41.9288" cy="29.7462" r="1.4" fill="red"/>
<circle cx="42" cy="57.6832" r="1.4" fill="green"/>
<circle cx="42" cy="66.6416" r="1.4" fill="green"/>
<circle cx="42.0087" cy="68.3997" r="1.4" fill="green"/>
<circle cx="42.1298" cy="5.02576" r="1.4" fill="red"/>
<circle cx="42.2076" cy="84.0114" r="1.4" fill="red"/>
<circle cx="43" cy="61.218" r="1.4" fill="green"/>
<circle cx="43" cy="61.712" r="1.4" fill="green"/>
<circle cx="43" cy="63.9918" r="1.4" fill="green"/>
<circle cx="44" cy="59.731" r="1.4" fill="green"/>
<circle cx="44" cy="60.4" r="1.4" fill="green"/>
<circle cx="45" cy="61.7555" r="1.4" fill="green"/>
<circle cx="46" cy="60.9596" r="1.4" fill="green"/>
<circle cx="46" cy="61.9127" r="1.4" fill="green"/>
<circle cx="46" cy="62.6215" r="1.4" fill="green"/>
<circle cx="46" cy="64.9023" r="1.4" fill="green"/>
<circle cx="46" cy="68.1075" r="1.4" fill="green"/>
<circle cx="46" cy="69.3018" r="1.4" fill="green"/>
<circle cx="46" cy="69.3249" r="1.4" fill="green"/>
<circle cx="47" cy="62.5247" r="1.4" fill="green"/>
<circle cx="48" cy="59.3483" r="1.4" fill="green"/>
<circle cx="48" cy="64.6262" r="1.4" fill="green"/>
<circle cx="48" cy="64.7573" r="1.4" fill="green"/>
<circle cx="48" cy="67.6673" r="1.4" fill="green"/>
<circle cx="48.6217" cy="72.0424" r="1.4" fill="red"/>
<circle cx="49" cy="62.72" r="1.4" fill="green"/>
<circle cx="49" cy="64.2939" r="1.4" fill="green"/>
<circle cx="50" cy="64.2081" r="1.4" fill="green"/>
<circle cx="50" cy="65.4317" r="1.4" fill="green"/>
<circle cx="50" cy="69.0183" r="1.4" fill="green"/>
<circle cx="51" cy="62.6029" r="1.4" fill="green"/>
<circle cx="51.9866" cy="6.89654" r="1.4" fill="red"/>
<circle cx="52" cy="62.7554" r="1.4" fill="green"/>
<circle cx="52" cy="65.4978" r="1.4" fill="green"/>
<circle cx="52" cy="68.9263" r="1.4" fill="green"/>
<circle cx="52.8744" cy="85.113" r="1.4" fill="red"/>
<circle cx="53" cy="61.9595" r="1.4" fill="green"/>
<circle cx="53" cy="62.4888" r="1.4" fill="green"/>
<circle cx="53" cy="69.3246" r="1.4" fill="green"/>
<circle cx="54" cy="66.2274" r="1.4" fill="green"/>
<circle cx="55" cy="66.2402" r="1.4" fill="green"/>
<circle cx="55" cy="69.9654" r="1.4" fill="green"/>
<circle cx="56" cy="61.0722" r="1.4" fill="green"/>
<circle cx="56.3296" cy="25.8874" r="1.4" fill="red"/>
<circle cx="56.9412" cy="39.061" r="1.4" fill="red"/>
<circle cx="57" cy="65.7555" r="1.4" fill="green"/>
<circle cx="57" cy="71.6513" r="1.4" fill="green"/>
<circle cx="58" cy="66.4186" r="1.4" fill="green"/>
<circle cx="58" cy="67.7677" r="1.4" fill="green"/>
<circle cx="58" cy="68.7957" r="1.4" fill="green"/>
<circle cx="59" cy="67.5254" r="1.4" fill="green"/>
<circle cx="59.8911" cy="39.0831" r="1.4" fill="red"/>
<circle cx="60" cy="65.4847" r="1.4" fill="green"/>
<circle cx="60" cy="67.8457" r="1.4" fill="green"/>
<circle cx="61" cy="73.5762" r="1.4" fill="green"/>
<circle cx="61.1611" cy="63.9101" r="1.4" fill="green"/>
<circle cx="62" cy="67.6" r="1.4" fill="green"/>
<circle cx="63.6644" cy="0.835757" r="1.4" fill="red"/>
<circle cx="64" cy="66.3915" r="1.4" fill="green"/>
<circle cx="64" cy="69.8748" r="1.4" fill="green"/>
<circle cx="65" cy="66.81" r="1.4" fill="green"/>
<circle cx="65" cy="66.9748" r="1.4" fill="green"/>
<circle cx="65" cy="71.7177" r="1.4" fill="green"/>
<circle cx="65" cy="72.2801" r="1.4" fill="green"/>
<circle cx="65" cy="72.7983" r="1.4" fill="green"/>
<circle cx="66" cy="67.061" r="1.4" fill="green"/>
<circle cx="66" cy="67.6902" r="1.4" fill="green"/>
<circle cx="66" cy="70.2451" r="1.4" fill="green"/>
<circle cx="66" cy="70.4038" r="1.4" fill="green"/>
<circle cx="67" cy="67.6255" r="1.4" fill="green"/>
<circle cx="67" cy="68.0262" r="1.4" fill="green"/>
<circle cx="67" cy="73.2088" r="1.4" fill="green"/>
<circle cx="68" cy="68.3646" r="1.4" fill="green"/>
<circle cx="68.9666" cy="48.6503" r="1.4" fill="red"/>
<circle cx="68.9682" cy="53.0396" r="1.4" fill="red"/>
<circle cx="69" cy="68.909" r="1.4" fill="green"/>
<circle cx="69" cy="73.4277" r="1.4" fill="green"/>
<circle cx="69" cy="75.0337" r="1.4" fill="green"/>
<circle cx="70" cy="74.821" r="1.4" fill="green"/>
<circle cx="70.8157" cy="53.1124" r="1.4" fill="red"/>
<circle cx="70.8372" cy="76.2404" r="1.4" fill="green"/>
<circle cx="71" cy="71.1241" r="1.4" fill="green"/>
<circle cx="71" cy="75.1038" r="1.4" fill="green"/>
<circle cx="71.6404" cy="11.1547" r="1.4" fill="red"/>
<circle cx="72" cy="71.2454" r="1.4" fill="green"/>
<circle cx="72" cy="71.8419" r="1.4" fill="green"/>
<circle cx="72" cy="76.2272" r="1.4" fill="green"/>
<circle cx="73" cy="74.7817" r="1.4" fill="green"/>
<circle cx="73.9887" cy="25.7768" r="1.4" fill="red"/>
<circle cx="74" cy="72.3324" r="1.4" fill="green"/>
<circle cx="74" cy="72.354" r="1.4" fill="green"/>
<circle cx="74" cy="77.0423" r="1.4" fill="green"/>
<circle cx="75" cy="67.2635" r="1.4" fill="green"/>
<circle cx="75" cy="70.0731" r="1.4" fill="green"/>
<circle cx="75" cy="71.9007" r="1.4" fill="green"/>
<circle cx="75.7445" cy="13.9397" r="1.4" fill="red"/>
<circle cx="76" cy="69.5878" r="1.4" fill="green"/>
<circle cx="76" cy="73.6695" r="1.4" fill="green"/>
<circle cx="76.629" cy="74.1981" r="1.4" fill="green"/>
<circle cx="76.947" cy="1.34877" r="1.4" fill="red"/>
<circle cx="77" cy="73.352" r="1.4" fill="green"/>
<circle cx="78" cy="72.5688" r="1.4" fill="green"/>
<circle cx="78" cy="73.3772" r="1.4" fill="green"/>
<circle cx="78" cy="79.3871" r="1.4" fill="green"/>
<circle cx="78" cy="79.6042" r="1.4" fill="green"/>
<circle cx="78.0788" cy="21.1075" r="1.4" fill="red"/>
<circle cx="79" cy="75.8721" r="1.4" fill="green"/>
<circle cx="80" cy="73.9189" r="1.4" fill="green"/>
<circle cx="80" cy="75.5475" r="1.4" fill="green"/>
<circle cx="80" cy="75.7845" r="1.4" fill="green"/>
<circle cx="81" cy="71.0965" r="1.4" fill="green"/>
<circle cx="81" cy="73.2292" r="1.4" fill="green"/>
<circle cx="81" cy="76.2379" r="1.4" fill="green"/>
<circle cx="81.2211" cy="25.0391" r="1.4" fill="red"/>
<circle cx="81.2458" cy="53.2566" r="1.4" fill="red"/>
<circle cx="82" cy="76.6674" r="1.4" fill="green"/>
<circle cx="83" cy="74.4205" r="1.4" fill="green"/>
<circle cx="83.4916" cy="89.9652" r="1.4" fill="red"/>
<circle cx="84" cy="71.4271" r="1.4" fill="green"/>
<circle cx="84" cy="74.6617" r="1.4" fill="green"/>
<circle cx="85" cy="75.3232" r="1.4" fill="green"/>
<circle cx="86" cy="70.9639" r="1.4" fill="green"/>
<circle cx="86" cy="72.0308" r="1.4" fill="green"/>
<circle cx="86" cy="77.9576" r="1.4" fill="green"/>
<circle cx="87" cy="71.7527" r="1.4" fill="green"/>
<circle cx="87" cy="75.2772" r="1.4" fill="green"/>
<circle cx="87" cy="75.3042" r="1.4" fill="green"/>
<circle cx="87" cy="77.3961" r="1.4" fill="green"/>
<circle cx="87" cy="79.6412" r="1.4" fill="green"/>
<circle cx="87.3199" cy="86.0458" r="1.4" fill="red"/>
<circle cx="88" cy="76.0315" r="1.4" fill="green"/>
<circle cx="88" cy="77.0518" r="1.4" fill="green"/>
<circle cx="88" cy="77.0597" r="1.4" fill="green"/>
<circle cx="88.0339" cy="91.8748" r="1.4" fill="red"/>
<circle cx="88.8612" cy="39.9051" r="1.4" fill="red"/>
<circle cx="89" cy="81.748" r="1.4" fill="green"/>
<circle cx="90" cy="74.7704" r="1.4" fill="green"/>
<circle cx="90" cy="76.0345" r="1.4" fill="green"/>
<circle cx="90" cy="77.3715" r="1.4" fill="green"/>
<circle cx="91" cy="75.6408" r="1.4" fill="green"/>
<circle cx="91" cy="75.8696" r="1.4" fill="green"/>
<circle cx="91" cy="78.116" r="1.4" fill="green"/>
<circle cx="91.85" cy="31.973" r="1.4" fill="red"/>
<circle cx="92" cy="73.399" r="1.4" fill="green"/>
<circle cx="92" cy="75.6218" r="1.4" fill="green"/>
<circle cx="92" cy="76.0304" r="1.4" fill="green"/>
<circle cx="92" cy="80.3445" r="1.4" fill="green"/>
<circle cx="93" cy="74.472" r="1.4" fill="green"/>
<circle cx="93" cy="76.7495" r="1.4" fill="green"/>
<circle cx="93" cy="77.835" r="1.4" fill="green"/>
<circle cx="94" cy="78.9351" r="1.4" fill="green"/>
<circle cx="94" cy="79.2914" r="1.4" fill="green"/>
<circle cx="94.9068" cy="60.2674" r="1.4" fill="red"/>
<circle cx="95" cy="75.2679" r="1.4" fill="green"/>
<circle cx="95" cy="78.7557" r="1.4" fill="green"/>
<circle cx="95" cy="81.0226" r="1.4" fill="green"/>
<circle cx="95" cy="82.507" r="1.4" fill="green"/>
<circle cx="95" cy="83.1195" r="1.4" fill="green"/>
<circle cx="96" cy="79.4977" r="1.4" fill="green"/>
<circle cx="96" cy="80.1956" r="1.4" fill="green"/>
<circle cx="96" cy="80.5662" r="1.4" fill="green"/>
<circle cx="97" cy="74.741" r="1.4" fill="green"/>
<circle cx="97" cy="77.7335" r="1.4" fill="green"/>
<circle cx="97" cy="79.062" r="1.4" fill="green"/>
<circle cx="98.7691" cy="82.8879" r="1.4" fill="green"/>
<circle cx="99" cy="82.517" r="1.4" fill="green"/>
<circle cx="99" cy="82.6076" r="1.4" fill="green"/>
<circle cx="99" cy="84.2658" r="1.4" fill="green"/>
<circle cx="99.3724" cy="44.7213" r="1.4" fill="red"/>
<polyline points="0,49.6854,100,80.3187" stroke="blue" stroke-width="1"/>
</svg>